<svg xmlns="http://www.w3.org/2000/svg" width="1760" height="1100" viewBox="0 0 1760 1100" font-family="'Segoe UI','Helvetica Neue',Arial,'Liberation Sans',sans-serif"><defs>
  <linearGradient id="qicHead" x1="0" y1="0" x2="1" y2="0">
    <stop offset="0" stop-color="#0E2647"/>
    <stop offset="0.62" stop-color="#082C6B"/>
    <stop offset="1" stop-color="#0B3D91"/>
  </linearGradient>
  <linearGradient id="pfBadge" x1="0" y1="0" x2="0" y2="1">
    <stop offset="0" stop-color="#0D9DDA"/>
    <stop offset="1" stop-color="#0B5CAB"/>
  </linearGradient>
  <linearGradient id="pfBand" x1="0" y1="0" x2="0" y2="1">
    <stop offset="0" stop-color="#0D9DDA"/>
    <stop offset="1" stop-color="#032D60"/>
  </linearGradient>
  <linearGradient id="aiGrad" x1="0" y1="0" x2="1" y2="1">
    <stop offset="0" stop-color="#8E5BE8"/>
    <stop offset="1" stop-color="#0D9DDA"/>
  </linearGradient>
  <filter id="ds" x="-8%" y="-8%" width="116%" height="120%">
    <feDropShadow dx="0" dy="2.5" stdDeviation="4.5" flood-color="#1b283a" flood-opacity="0.16"/>
  </filter>
  <filter id="dsSoft" x="-20%" y="-20%" width="140%" height="150%">
    <feDropShadow dx="0" dy="1.5" stdDeviation="2.5" flood-color="#1b283a" flood-opacity="0.13"/>
  </filter>
  <marker id="arr" markerWidth="11" markerHeight="11" refX="8.5" refY="5.5" orient="auto">
    <path d="M1,1 L9.5,5.5 L1,10" fill="none" stroke="#5A6B7B" stroke-width="1.8" stroke-linecap="round" stroke-linejoin="round"/>
  </marker>
  <marker id="arrP" markerWidth="11" markerHeight="11" refX="8.5" refY="5.5" orient="auto">
    <path d="M1,1 L9.5,5.5 L1,10" fill="none" stroke="#0B5CAB" stroke-width="1.9" stroke-linecap="round" stroke-linejoin="round"/>
  </marker>
  <marker id="arrG" markerWidth="11" markerHeight="11" refX="8.5" refY="5.5" orient="auto">
    <path d="M1,1 L9.5,5.5 L1,10" fill="none" stroke="#C79A3B" stroke-width="2" stroke-linecap="round" stroke-linejoin="round"/>
  </marker>
  <marker id="dot" markerWidth="8" markerHeight="8" refX="4" refY="4">
    <circle cx="4" cy="4" r="3" fill="#0D9DDA"/>
  </marker>
</defs><rect width="1760" height="1100" fill="#EEF2F6"/><rect x="0" y="0" width="1760" height="104" fill="url(#qicHead)"/><rect x="0" y="100" width="1760" height="4" fill="#C79A3B"/><circle cx="70" cy="52.0" r="26" fill="#ffffff" opacity="0.10"/><circle cx="70" cy="52.0" r="22" fill="none" stroke="#C79A3B" stroke-width="2"/><path d="M70 38.0 L83 46.0 L83 59.0 Q83 65.0 70 68.0 Q57 65.0 57 59.0 L57 46.0 Z" fill="#ffffff"/><path d="M70 44.0 L77 48.5 L77 56.0 Q77 59.5 70 61.5 Q63 59.5 63 56.0 L63 48.5 Z" fill="#0B3D91"/><text x="114.0" y="40.0" font-family="'Segoe UI','Helvetica Neue',Arial,'Liberation Sans',sans-serif" font-size="27" font-weight="800" fill="#ffffff" text-anchor="start" letter-spacing="2">QGIRCO</text><text x="114.0" y="63.0" font-family="'Segoe UI','Helvetica Neue',Arial,'Liberation Sans',sans-serif" font-size="13.5" font-weight="500" fill="#EBD9C2" text-anchor="start">Qatar General Insurance &amp; Reinsurance Company</text><text x="114.0" y="84.0" font-family="'Segoe UI','Helvetica Neue',Arial,'Liberation Sans',sans-serif" font-size="11.5" font-weight="700" fill="#C79A3B" text-anchor="start" letter-spacing="2.5">REQUIREMENT → REALIZED IN PRODUCT</text><text x="940.0" y="52.0" font-family="'Segoe UI','Helvetica Neue',Arial,'Liberation Sans',sans-serif" font-size="22" font-weight="700" fill="#ffffff" text-anchor="middle">Notifications &amp; Follow-up Management</text><text x="940.0" y="76.0" font-family="'Segoe UI','Helvetica Neue',Arial,'Liberation Sans',sans-serif" font-size="13" font-weight="400" fill="#D9C3AD" text-anchor="middle" font-style="italic">How the Salesforce solution addresses this QGIRCO requirement</text><rect x="1452.0" y="26.0" width="268.0" height="52.0" rx="10" ry="10" fill="#ffffff" opacity="0.97"/><g transform="translate(1464.3,38.8) scale(1.0)"><path d="M6 20 Q1.5 20 1.5 15.5 Q1.5 11.5 5.6 11 Q6 6.5 10.5 6.5 Q13.6 6.5 15 9 Q16.4 7.7 18.4 7.7 Q22.5 7.7 22.5 12 Q26 12.3 26 16 Q26 20 21.5 20 Z" fill="#00A1E0"/></g><text x="1502.0" y="49.0" font-family="'Segoe UI','Helvetica Neue',Arial,'Liberation Sans',sans-serif" font-size="15.5" font-weight="800" fill="#032D60" text-anchor="start">Salesforce</text><text x="1502.0" y="66.0" font-family="'Segoe UI','Helvetica Neue',Arial,'Liberation Sans',sans-serif" font-size="9.6" font-weight="600" fill="#0B5CAB" text-anchor="start">Sales Cloud · Service Cloud · Platform</text><rect x="40.0" y="124.0" width="372.0" height="916.0" rx="12" ry="12" fill="#fff" stroke="#D5DEE7" stroke-width="1.4"/><g filter="url(#dsSoft)"><rect x="40.0" y="124.0" width="372.0" height="916.0" rx="12" ry="12" fill="none"/></g><rect x="40.0" y="124.0" width="372.0" height="6.0" rx="3" ry="3" fill="#0B3D91"/><text x="58.0" y="154.0" font-family="'Segoe UI','Helvetica Neue',Arial,'Liberation Sans',sans-serif" font-size="11" font-weight="800" fill="#0B3D91" text-anchor="start" letter-spacing="2">REQUIREMENT</text><rect x="340.0" y="140.0" width="54.0" height="20.0" rx="6" ry="6" fill="#0E2647"/><text x="367.0" y="154.0" font-family="'Segoe UI','Helvetica Neue',Arial,'Liberation Sans',sans-serif" font-size="11" font-weight="800" fill="#fff" text-anchor="middle">FR-Ntf</text><text x="58.0" y="178.0" font-family="'Segoe UI','Helvetica Neue',Arial,'Liberation Sans',sans-serif" font-size="15.5" font-weight="800" fill="#032D60" text-anchor="start"><tspan x="58.0" dy="0">Notifications &amp; Follow-ups</tspan></text><rect x="58.0" y="203.0" width="62.8" height="17.0" rx="8" ry="8" fill="#F6F8FB" stroke="#D5DEE7" stroke-width="1"/><text x="89.4" y="215.0" font-family="'Segoe UI','Helvetica Neue',Arial,'Liberation Sans',sans-serif" font-size="8.8" font-weight="700" fill="#1C3A63" text-anchor="middle">RFP §5.3</text><rect x="126.8" y="203.0" width="107.6" height="17.0" rx="8" ry="8" fill="#F6F8FB" stroke="#D5DEE7" stroke-width="1"/><text x="180.6" y="215.0" font-family="'Segoe UI','Helvetica Neue',Arial,'Liberation Sans',sans-serif" font-size="8.8" font-weight="700" fill="#1C3A63" text-anchor="middle">BRD §11.6 / §7.7</text><rect x="240.4" y="203.0" width="135.6" height="17.0" rx="8" ry="8" fill="#F6F8FB" stroke="#D5DEE7" stroke-width="1"/><text x="308.2" y="215.0" font-family="'Segoe UI','Helvetica Neue',Arial,'Liberation Sans',sans-serif" font-size="8.8" font-weight="700" fill="#1C3A63" text-anchor="middle">Proposal — automation</text><circle cx="61" cy="230" r="2.4" fill="#0D9DDA"/><text x="72.0" y="233.0" font-family="'Segoe UI','Helvetica Neue',Arial,'Liberation Sans',sans-serif" font-size="10.6" font-weight="500" fill="#1B2733" text-anchor="start"><tspan x="72.0" dy="0">Automated notifications for assignments,</tspan><tspan x="72.0" dy="14">follow-ups, SLA breaches and workflow</tspan><tspan x="72.0" dy="14">updates.</tspan></text><circle cx="61" cy="280" r="2.4" fill="#0D9DDA"/><text x="72.0" y="283.0" font-family="'Segoe UI','Helvetica Neue',Arial,'Liberation Sans',sans-serif" font-size="10.6" font-weight="500" fill="#1B2733" text-anchor="start"><tspan x="72.0" dy="0">Delivered in-CRM, by email and by WhatsApp</tspan><tspan x="72.0" dy="14">where applicable.</tspan></text><circle cx="61" cy="316" r="2.4" fill="#0D9DDA"/><text x="72.0" y="319.0" font-family="'Segoe UI','Helvetica Neue',Arial,'Liberation Sans',sans-serif" font-size="10.6" font-weight="500" fill="#1B2733" text-anchor="start"><tspan x="72.0" dy="0">Follow-up requirements generate scheduled</tspan><tspan x="72.0" dy="14">tasks so nothing is missed.</tspan></text><line x1="58.0" y1="359.0" x2="394.0" y2="359.0" stroke="#D5DEE7" stroke-width="1" stroke-linecap="round"/><rect x="58.0" y="366.0" width="20.0" height="20.0" rx="5" ry="5" fill="#F3F7FB" stroke="#E3E8EE" stroke-width="1"/><g transform="translate(60.8,368.8) scale(0.6)"><path d="M3 18 A9 9 0 0 1 21 18" fill="none" stroke="#0D9DDA" stroke-width="2.4"/><line x1="12" y1="18" x2="16" y2="12" stroke="#0D9DDA" stroke-width="2.2" stroke-linecap="round"/><circle cx="12" cy="18" r="2" fill="#0D9DDA"/></g><text x="86.0" y="381.0" font-family="'Segoe UI','Helvetica Neue',Arial,'Liberation Sans',sans-serif" font-size="10.5" font-weight="800" fill="#032D60" text-anchor="start" letter-spacing="0.5">HOW SALESFORCE DELIVERS IT</text><circle cx="68" cy="401" r="11" fill="#C79A3B" stroke="#fff" stroke-width="2"/><circle cx="68" cy="401" r="11" fill="none" stroke="#082C6B" stroke-width="1" opacity="0.5"/><text x="68.0" y="405.0" font-family="'Segoe UI','Helvetica Neue',Arial,'Liberation Sans',sans-serif" font-size="10.45" font-weight="900" fill="#3a2a06" text-anchor="middle">1</text><text x="86.0" y="397.0" font-family="'Segoe UI','Helvetica Neue',Arial,'Liberation Sans',sans-serif" font-size="10.4" font-weight="500" fill="#1B2733" text-anchor="start"><tspan x="86.0" dy="0">A notification centre alerts each user</tspan><tspan x="86.0" dy="13.5">to the events that concern them.</tspan></text><circle cx="68" cy="435.0" r="11" fill="#C79A3B" stroke="#fff" stroke-width="2"/><circle cx="68" cy="435.0" r="11" fill="none" stroke="#082C6B" stroke-width="1" opacity="0.5"/><text x="68.0" y="439.0" font-family="'Segoe UI','Helvetica Neue',Arial,'Liberation Sans',sans-serif" font-size="10.45" font-weight="900" fill="#3a2a06" text-anchor="middle">2</text><text x="86.0" y="431.0" font-family="'Segoe UI','Helvetica Neue',Arial,'Liberation Sans',sans-serif" font-size="10.4" font-weight="500" fill="#1B2733" text-anchor="start"><tspan x="86.0" dy="0">SLA reminders and breach alerts fire</tspan><tspan x="86.0" dy="13.5">automatically to owners and supervisors.</tspan></text><circle cx="68" cy="469.0" r="11" fill="#C79A3B" stroke="#fff" stroke-width="2"/><circle cx="68" cy="469.0" r="11" fill="none" stroke="#082C6B" stroke-width="1" opacity="0.5"/><text x="68.0" y="473.0" font-family="'Segoe UI','Helvetica Neue',Arial,'Liberation Sans',sans-serif" font-size="10.45" font-weight="900" fill="#3a2a06" text-anchor="middle">3</text><text x="86.0" y="465.0" font-family="'Segoe UI','Helvetica Neue',Arial,'Liberation Sans',sans-serif" font-size="10.4" font-weight="500" fill="#1B2733" text-anchor="start"><tspan x="86.0" dy="0">Follow-up requirements auto-create</tspan><tspan x="86.0" dy="13.5">scheduled tasks with due dates.</tspan></text><circle cx="68" cy="503.0" r="11" fill="#C79A3B" stroke="#fff" stroke-width="2"/><circle cx="68" cy="503.0" r="11" fill="none" stroke="#082C6B" stroke-width="1" opacity="0.5"/><text x="68.0" y="507.0" font-family="'Segoe UI','Helvetica Neue',Arial,'Liberation Sans',sans-serif" font-size="10.45" font-weight="900" fill="#3a2a06" text-anchor="middle">4</text><text x="86.0" y="499.0" font-family="'Segoe UI','Helvetica Neue',Arial,'Liberation Sans',sans-serif" font-size="10.4" font-weight="500" fill="#1B2733" text-anchor="start"><tspan x="86.0" dy="0">Notifications route across in-app, email</tspan><tspan x="86.0" dy="13.5">and WhatsApp channels.</tspan></text><rect x="428.0" y="124.0" width="1292.0" height="916.0" rx="10" ry="10" fill="#fff" stroke="#C7D2DE" stroke-width="1.4"/><g filter="url(#ds)"><rect x="428.0" y="124.0" width="1292.0" height="916.0" rx="10" ry="10" fill="none"/></g><rect x="428.0" y="124.0" width="1292.0" height="26.0" rx="10" ry="10" fill="#E7ECF2"/><rect x="428.0" y="140.0" width="1292.0" height="10.0" rx="12" ry="12" fill="#E7ECF2"/><circle cx="444" cy="137.0" r="4.2" fill="#F25F5C"/><circle cx="459" cy="137.0" r="4.2" fill="#FFB84D"/><circle cx="474" cy="137.0" r="4.2" fill="#2ECC71"/><rect x="498.0" y="130.0" width="1152.0" height="14.0" rx="7" ry="7" fill="#FFFFFF" stroke="#D4DCE5" stroke-width="1"/><circle cx="512" cy="137.0" r="3.4" fill="#1E9E5A"/><text x="522.0" y="140.4" font-family="'Segoe UI','Helvetica Neue',Arial,'Liberation Sans',sans-serif" font-size="9.4" font-weight="500" fill="#5A6B7B" text-anchor="start">qgirco.lightning.force.com</text><rect x="428.0" y="150.0" width="1292.0" height="40.0" rx="12" ry="12" fill="#16325C"/><rect x="446.0" y="165.0" width="3.0" height="3.0" rx="0.6" fill="#ffffff"/><rect x="451.4" y="165.0" width="3.0" height="3.0" rx="0.6" fill="#ffffff"/><rect x="456.8" y="165.0" width="3.0" height="3.0" rx="0.6" fill="#ffffff"/><rect x="446.0" y="170.4" width="3.0" height="3.0" rx="0.6" fill="#ffffff"/><rect x="451.4" y="170.4" width="3.0" height="3.0" rx="0.6" fill="#ffffff"/><rect x="456.8" y="170.4" width="3.0" height="3.0" rx="0.6" fill="#ffffff"/><rect x="446.0" y="175.8" width="3.0" height="3.0" rx="0.6" fill="#ffffff"/><rect x="451.4" y="175.8" width="3.0" height="3.0" rx="0.6" fill="#ffffff"/><rect x="456.8" y="175.8" width="3.0" height="3.0" rx="0.6" fill="#ffffff"/><text x="470.0" y="174.0" font-family="'Segoe UI','Helvetica Neue',Arial,'Liberation Sans',sans-serif" font-size="6" font-weight="400" fill="#fff" text-anchor="start">⋮⋮⋮</text><rect x="578.0" y="158.0" width="952.0" height="24.0" rx="6" ry="6" fill="#0b264a"/><text x="594.0" y="173.6" font-family="'Segoe UI','Helvetica Neue',Arial,'Liberation Sans',sans-serif" font-size="10" font-weight="500" fill="#9DB4CE" text-anchor="start">⌕   Search Salesforce</text><text x="1700.0" y="174.5" font-family="'Segoe UI','Helvetica Neue',Arial,'Liberation Sans',sans-serif" font-size="11" font-weight="400" fill="#C8D6E6" text-anchor="end">✦</text><text x="1676.0" y="174.5" font-family="'Segoe UI','Helvetica Neue',Arial,'Liberation Sans',sans-serif" font-size="11" font-weight="400" fill="#C8D6E6" text-anchor="end">?</text><text x="1652.0" y="174.5" font-family="'Segoe UI','Helvetica Neue',Arial,'Liberation Sans',sans-serif" font-size="11" font-weight="400" fill="#C8D6E6" text-anchor="end">⚙</text><text x="1628.0" y="174.5" font-family="'Segoe UI','Helvetica Neue',Arial,'Liberation Sans',sans-serif" font-size="11" font-weight="400" fill="#C8D6E6" text-anchor="end">🔔</text><text x="1604.0" y="174.5" font-family="'Segoe UI','Helvetica Neue',Arial,'Liberation Sans',sans-serif" font-size="11" font-weight="400" fill="#C8D6E6" text-anchor="end">▦</text><circle cx="1698" cy="170.0" r="11" fill="#C9A24B"/><text x="1698.0" y="173.7" font-family="'Segoe UI','Helvetica Neue',Arial,'Liberation Sans',sans-serif" font-size="9.02" font-weight="700" fill="#fff" text-anchor="middle">SA</text><rect x="428.0" y="190.0" width="1292.0" height="42.0" rx="12" ry="12" fill="#FFFFFF" stroke="#E5E5E5" stroke-width="1"/><rect x="442.0" y="199.0" width="26.0" height="24.0" rx="6" ry="6" fill="#1B96FF"/><g transform="translate(447.6933333333333,203.96) scale(0.5333333333333333)"><path d="M6 20 Q1.5 20 1.5 15.5 Q1.5 11.5 5.6 11 Q6 6.5 10.5 6.5 Q13.6 6.5 15 9 Q16.4 7.7 18.4 7.7 Q22.5 7.7 22.5 12 Q26 12.3 26 16 Q26 20 21.5 20 Z" fill="#fff"/></g><text x="476.0" y="215.0" font-family="'Segoe UI','Helvetica Neue',Arial,'Liberation Sans',sans-serif" font-size="12.5" font-weight="800" fill="#080707" text-anchor="start">Service</text><text x="533.8" y="215.0" font-family="'Segoe UI','Helvetica Neue',Arial,'Liberation Sans',sans-serif" font-size="9" font-weight="400" fill="#5A6B7B" text-anchor="start">▾</text><text x="567.2" y="215.0" font-family="'Segoe UI','Helvetica Neue',Arial,'Liberation Sans',sans-serif" font-size="10.6" font-weight="500" fill="#3E3E3C" text-anchor="start">Home</text><text x="620.4" y="215.0" font-family="'Segoe UI','Helvetica Neue',Arial,'Liberation Sans',sans-serif" font-size="10.6" font-weight="700" fill="#080707" text-anchor="start">Cases</text><rect x="617.4" y="229.0" width="42.0" height="3.0" rx="12" ry="12" fill="#0176D3"/><text x="680.4" y="215.0" font-family="'Segoe UI','Helvetica Neue',Arial,'Liberation Sans',sans-serif" font-size="10.6" font-weight="500" fill="#3E3E3C" text-anchor="start">Accounts</text><text x="760.8" y="215.0" font-family="'Segoe UI','Helvetica Neue',Arial,'Liberation Sans',sans-serif" font-size="10.6" font-weight="500" fill="#3E3E3C" text-anchor="start">Contacts</text><text x="841.2" y="215.0" font-family="'Segoe UI','Helvetica Neue',Arial,'Liberation Sans',sans-serif" font-size="10.6" font-weight="500" fill="#3E3E3C" text-anchor="start">Knowledge</text><text x="928.4" y="215.0" font-family="'Segoe UI','Helvetica Neue',Arial,'Liberation Sans',sans-serif" font-size="10.6" font-weight="500" fill="#3E3E3C" text-anchor="start">Reports</text><text x="1002.0" y="215.0" font-family="'Segoe UI','Helvetica Neue',Arial,'Liberation Sans',sans-serif" font-size="10.6" font-weight="500" fill="#3E3E3C" text-anchor="start">More ▾</text><rect x="428.0" y="1010.0" width="1292.0" height="30.0" rx="12" ry="12" fill="#032D60"/><text x="444.0" y="1029.0" font-family="'Segoe UI','Helvetica Neue',Arial,'Liberation Sans',sans-serif" font-size="10" font-weight="400" fill="#C8D6E6" text-anchor="start">🎧</text><text x="460.0" y="1029.0" font-family="'Segoe UI','Helvetica Neue',Arial,'Liberation Sans',sans-serif" font-size="9.4" font-weight="600" fill="#DCE8F5" text-anchor="start">Omni-Channel</text><text x="560.4" y="1029.0" font-family="'Segoe UI','Helvetica Neue',Arial,'Liberation Sans',sans-serif" font-size="10" font-weight="400" fill="#4BCA81" text-anchor="start">●</text><text x="576.4" y="1029.0" font-family="'Segoe UI','Helvetica Neue',Arial,'Liberation Sans',sans-serif" font-size="9.4" font-weight="600" fill="#DCE8F5" text-anchor="start">Available</text><text x="664.2" y="1029.0" font-family="'Segoe UI','Helvetica Neue',Arial,'Liberation Sans',sans-serif" font-size="10" font-weight="400" fill="#C8D6E6" text-anchor="start">☎</text><text x="680.2" y="1029.0" font-family="'Segoe UI','Helvetica Neue',Arial,'Liberation Sans',sans-serif" font-size="9.4" font-weight="600" fill="#DCE8F5" text-anchor="start">Phone</text><text x="737.2" y="1029.0" font-family="'Segoe UI','Helvetica Neue',Arial,'Liberation Sans',sans-serif" font-size="10" font-weight="400" fill="#C8D6E6" text-anchor="start">🕘</text><text x="753.2" y="1029.0" font-family="'Segoe UI','Helvetica Neue',Arial,'Liberation Sans',sans-serif" font-size="9.4" font-weight="600" fill="#DCE8F5" text-anchor="start">History</text><text x="822.6" y="1029.0" font-family="'Segoe UI','Helvetica Neue',Arial,'Liberation Sans',sans-serif" font-size="10" font-weight="400" fill="#C8D6E6" text-anchor="start">📝</text><text x="838.6" y="1029.0" font-family="'Segoe UI','Helvetica Neue',Arial,'Liberation Sans',sans-serif" font-size="9.4" font-weight="600" fill="#DCE8F5" text-anchor="start">Notes</text><text x="895.6" y="1029.0" font-family="'Segoe UI','Helvetica Neue',Arial,'Liberation Sans',sans-serif" font-size="10" font-weight="400" fill="#C8D6E6" text-anchor="start">⚡</text><text x="911.6" y="1029.0" font-family="'Segoe UI','Helvetica Neue',Arial,'Liberation Sans',sans-serif" font-size="9.4" font-weight="600" fill="#DCE8F5" text-anchor="start">Macros</text><text x="1704.0" y="1029.0" font-family="'Segoe UI','Helvetica Neue',Arial,'Liberation Sans',sans-serif" font-size="8.8" font-weight="500" fill="#7f9ab8" text-anchor="end">QGIRCO · Lightning Experience</text><rect x="428.0" y="232.0" width="1292.0" height="778.0" rx="12" ry="12" fill="#F3F3F3"/><rect x="444.0" y="246.0" width="630.0" height="750.0" rx="9" ry="9" fill="#FFFFFF" stroke="#E3E8EE" stroke-width="1.2"/><g filter="url(#dsSoft)"><rect x="444.0" y="246.0" width="630.0" height="750.0" rx="9" ry="9" fill="none"/></g><rect x="456.0" y="258.0" width="22.0" height="22.0" rx="5" ry="5" fill="#F3F7FB" stroke="#E3E8EE" stroke-width="1"/><g transform="translate(459.08,261.08) scale(0.6599999999999999)"><path d="M12 3 Q17 3 17 9 V13 L19 16 H5 L7 13 V9 Q7 3 12 3 Z" fill="#0D9DDA"/><circle cx="12" cy="18.5" r="2" fill="#0D9DDA"/></g><text x="486.0" y="273.0" font-family="'Segoe UI','Helvetica Neue',Arial,'Liberation Sans',sans-serif" font-size="12.5" font-weight="800" fill="#1B2733" text-anchor="start">Notification centre</text><line x1="456.0" y1="286.0" x2="1062.0" y2="286.0" stroke="#E3E8EE" stroke-width="1" stroke-linecap="round"/><circle cx="1062.0" cy="258" r="15" fill="#C79A3B" stroke="#fff" stroke-width="2"/><circle cx="1062.0" cy="258" r="15" fill="none" stroke="#082C6B" stroke-width="1" opacity="0.5"/><text x="1062.0" y="263.4" font-family="'Segoe UI','Helvetica Neue',Arial,'Liberation Sans',sans-serif" font-size="14.25" font-weight="900" fill="#3a2a06" text-anchor="middle">1</text><rect x="464.0" y="310.0" width="22.0" height="22.0" rx="5" ry="5" fill="#F3F7FB" stroke="#E3E8EE" stroke-width="1"/><g transform="translate(467.08,313.08) scale(0.6599999999999999)"><path d="M13 2 L4 13 H11 L9 22 L20 10 H12 Z" fill="#C0392B"/></g><text x="496.0" y="317.0" font-family="'Segoe UI','Helvetica Neue',Arial,'Liberation Sans',sans-serif" font-size="11.2" font-weight="700" fill="#1B2733" text-anchor="start">SLA breach — INC-2051</text><text x="496.0" y="333.0" font-family="'Segoe UI','Helvetica Neue',Arial,'Liberation Sans',sans-serif" font-size="9.4" font-weight="500" fill="#5A6B7B" text-anchor="start">Complaint · billing · escalate now</text><text x="1054.0" y="317.0" font-family="'Segoe UI','Helvetica Neue',Arial,'Liberation Sans',sans-serif" font-size="8.8" font-weight="600" fill="#94A3B2" text-anchor="end">2m</text><rect x="988.0" y="324.0" width="64.0" height="15.0" rx="7" ry="7" fill="#FDECEC"/><text x="1020.0" y="334.4" font-family="'Segoe UI','Helvetica Neue',Arial,'Liberation Sans',sans-serif" font-size="8.2" font-weight="600" fill="#0B875B" text-anchor="middle">Breach</text><rect x="464.0" y="362.0" width="22.0" height="22.0" rx="5" ry="5" fill="#F3F7FB" stroke="#E3E8EE" stroke-width="1"/><g transform="translate(467.08,365.08) scale(0.6599999999999999)"><circle cx="12" cy="12" r="10" fill="#E8A33D"/><path d="M12 6 V12 L16 14" fill="none" stroke="#fff" stroke-width="2" stroke-linecap="round"/></g><text x="496.0" y="369.0" font-family="'Segoe UI','Helvetica Neue',Arial,'Liberation Sans',sans-serif" font-size="11.2" font-weight="700" fill="#1B2733" text-anchor="start">SLA at 75% — TKT-3134</text><text x="496.0" y="385.0" font-family="'Segoe UI','Helvetica Neue',Arial,'Liberation Sans',sans-serif" font-size="9.4" font-weight="500" fill="#5A6B7B" text-anchor="start">Portal access · respond soon</text><text x="1054.0" y="369.0" font-family="'Segoe UI','Helvetica Neue',Arial,'Liberation Sans',sans-serif" font-size="8.8" font-weight="600" fill="#94A3B2" text-anchor="end">10m</text><rect x="988.0" y="376.0" width="64.0" height="15.0" rx="7" ry="7" fill="#FBF1DA"/><text x="1020.0" y="386.4" font-family="'Segoe UI','Helvetica Neue',Arial,'Liberation Sans',sans-serif" font-size="8.2" font-weight="600" fill="#0B875B" text-anchor="middle">Warning</text><rect x="464.0" y="414.0" width="22.0" height="22.0" rx="5" ry="5" fill="#F3F7FB" stroke="#E3E8EE" stroke-width="1"/><g transform="translate(467.08,417.08) scale(0.6599999999999999)"><rect x="3" y="6.5" width="18" height="13" rx="2.2" fill="#0D9DDA"/><path d="M9 6.5 V5 Q9 3.5 10.5 3.5 H13.5 Q15 3.5 15 5 V6.5" fill="none" stroke="#0D9DDA" stroke-width="1.8"/><rect x="6" y="10" width="12" height="1.7" rx="0.8" fill="#fff"/><rect x="6" y="13.5" width="8" height="1.7" rx="0.8" fill="#fff"/></g><text x="496.0" y="421.0" font-family="'Segoe UI','Helvetica Neue',Arial,'Liberation Sans',sans-serif" font-size="11.2" font-weight="700" fill="#1B2733" text-anchor="start">Case assigned to you</text><text x="496.0" y="437.0" font-family="'Segoe UI','Helvetica Neue',Arial,'Liberation Sans',sans-serif" font-size="9.4" font-weight="500" fill="#5A6B7B" text-anchor="start">INC-2055 · claims escalation</text><text x="1054.0" y="421.0" font-family="'Segoe UI','Helvetica Neue',Arial,'Liberation Sans',sans-serif" font-size="8.8" font-weight="600" fill="#94A3B2" text-anchor="end">18m</text><rect x="988.0" y="428.0" width="64.0" height="15.0" rx="7" ry="7" fill="#EAF2FB"/><text x="1020.0" y="438.4" font-family="'Segoe UI','Helvetica Neue',Arial,'Liberation Sans',sans-serif" font-size="8.2" font-weight="600" fill="#0B875B" text-anchor="middle">New</text><rect x="464.0" y="466.0" width="22.0" height="22.0" rx="5" ry="5" fill="#F3F7FB" stroke="#E3E8EE" stroke-width="1"/><g transform="translate(467.08,469.08) scale(0.6599999999999999)"><path d="M12 3 Q17 3 17 9 V13 L19 16 H5 L7 13 V9 Q7 3 12 3 Z" fill="#0D9DDA"/><circle cx="12" cy="18.5" r="2" fill="#0D9DDA"/></g><text x="496.0" y="473.0" font-family="'Segoe UI','Helvetica Neue',Arial,'Liberation Sans',sans-serif" font-size="11.2" font-weight="700" fill="#1B2733" text-anchor="start">Follow-up due today</text><text x="496.0" y="489.0" font-family="'Segoe UI','Helvetica Neue',Arial,'Liberation Sans',sans-serif" font-size="9.4" font-weight="500" fill="#5A6B7B" text-anchor="start">Ahmed Al-Kuwari · renewal</text><text x="1054.0" y="473.0" font-family="'Segoe UI','Helvetica Neue',Arial,'Liberation Sans',sans-serif" font-size="8.8" font-weight="600" fill="#94A3B2" text-anchor="end">1h</text><rect x="988.0" y="480.0" width="64.0" height="15.0" rx="7" ry="7" fill="#EAF2FB"/><text x="1020.0" y="490.4" font-family="'Segoe UI','Helvetica Neue',Arial,'Liberation Sans',sans-serif" font-size="8.2" font-weight="600" fill="#0B875B" text-anchor="middle">Due</text><rect x="464.0" y="518.0" width="22.0" height="22.0" rx="5" ry="5" fill="#F3F7FB" stroke="#E3E8EE" stroke-width="1"/><g transform="translate(467.08,521.08) scale(0.6599999999999999)"><circle cx="5" cy="6" r="3" fill="#0D9DDA"/><circle cx="19" cy="6" r="3" fill="#0D9DDA"/><circle cx="12" cy="18" r="3" fill="#0D9DDA"/><path d="M5 9 V11 Q5 15 12 15 M19 9 V11 Q19 15 12 15" fill="none" stroke="#0D9DDA" stroke-width="1.8"/></g><text x="496.0" y="525.0" font-family="'Segoe UI','Helvetica Neue',Arial,'Liberation Sans',sans-serif" font-size="11.2" font-weight="700" fill="#1B2733" text-anchor="start">Workflow update</text><text x="496.0" y="541.0" font-family="'Segoe UI','Helvetica Neue',Arial,'Liberation Sans',sans-serif" font-size="9.4" font-weight="500" fill="#5A6B7B" text-anchor="start">TKT-3120 moved to In progress</text><text x="1054.0" y="525.0" font-family="'Segoe UI','Helvetica Neue',Arial,'Liberation Sans',sans-serif" font-size="8.8" font-weight="600" fill="#94A3B2" text-anchor="end">2h</text><rect x="464.0" y="570.0" width="22.0" height="22.0" rx="5" ry="5" fill="#F3F7FB" stroke="#E3E8EE" stroke-width="1"/><text x="496.0" y="577.0" font-family="'Segoe UI','Helvetica Neue',Arial,'Liberation Sans',sans-serif" font-size="11.2" font-weight="700" fill="#1B2733" text-anchor="start">Customer replied</text><text x="496.0" y="593.0" font-family="'Segoe UI','Helvetica Neue',Arial,'Liberation Sans',sans-serif" font-size="9.4" font-weight="500" fill="#5A6B7B" text-anchor="start">Group HR — Ooredoo (email)</text><text x="1054.0" y="577.0" font-family="'Segoe UI','Helvetica Neue',Arial,'Liberation Sans',sans-serif" font-size="8.8" font-weight="600" fill="#94A3B2" text-anchor="end">3h</text><rect x="1088.0" y="246.0" width="616.0" height="435.0" rx="9" ry="9" fill="#FFFFFF" stroke="#E3E8EE" stroke-width="1.2"/><g filter="url(#dsSoft)"><rect x="1088.0" y="246.0" width="616.0" height="435.0" rx="9" ry="9" fill="none"/></g><rect x="1100.0" y="258.0" width="22.0" height="22.0" rx="5" ry="5" fill="#F3F7FB" stroke="#E3E8EE" stroke-width="1"/><g transform="translate(1103.08,261.08) scale(0.6599999999999999)"><rect x="3" y="6.5" width="18" height="13" rx="2.2" fill="#0D9DDA"/><path d="M9 6.5 V5 Q9 3.5 10.5 3.5 H13.5 Q15 3.5 15 5 V6.5" fill="none" stroke="#0D9DDA" stroke-width="1.8"/><rect x="6" y="10" width="12" height="1.7" rx="0.8" fill="#fff"/><rect x="6" y="13.5" width="8" height="1.7" rx="0.8" fill="#fff"/></g><text x="1130.0" y="273.0" font-family="'Segoe UI','Helvetica Neue',Arial,'Liberation Sans',sans-serif" font-size="12.5" font-weight="800" fill="#1B2733" text-anchor="start">Follow-up tasks</text><line x1="1100.0" y1="286.0" x2="1692.0" y2="286.0" stroke="#E3E8EE" stroke-width="1" stroke-linecap="round"/><circle cx="1692.0" cy="258" r="15" fill="#C79A3B" stroke="#fff" stroke-width="2"/><circle cx="1692.0" cy="258" r="15" fill="none" stroke="#082C6B" stroke-width="1" opacity="0.5"/><text x="1692.0" y="263.4" font-family="'Segoe UI','Helvetica Neue',Arial,'Liberation Sans',sans-serif" font-size="14.25" font-weight="900" fill="#3a2a06" text-anchor="middle">3</text><rect x="1100.0" y="296.0" width="592.0" height="34.0" rx="6" ry="6" fill="#F6F8FA" stroke="#E3E8EE" stroke-width="1"/><rect x="1110.0" y="307" width="12" height="12" rx="3" fill="#fff" stroke="#C0392B" stroke-width="1.6"/><text x="1132.0" y="312.0" font-family="'Segoe UI','Helvetica Neue',Arial,'Liberation Sans',sans-serif" font-size="9.8" font-weight="700" fill="#1B2733" text-anchor="start">Send renewal proof reminder</text><text x="1132.0" y="324.0" font-family="'Segoe UI','Helvetica Neue',Arial,'Liberation Sans',sans-serif" font-size="8.4" font-weight="500" fill="#5A6B7B" text-anchor="start">Ahmed Al-Kuwari</text><rect x="1620.0" y="305.0" width="68.0" height="17.0" rx="8" ry="8" fill="#fff"/><text x="1654.0" y="316.5" font-family="'Segoe UI','Helvetica Neue',Arial,'Liberation Sans',sans-serif" font-size="8.6" font-weight="600" fill="#C0392B" text-anchor="middle">Today</text><rect x="1100.0" y="336.0" width="592.0" height="34.0" rx="6" ry="6" fill="#F6F8FA" stroke="#E3E8EE" stroke-width="1"/><rect x="1110.0" y="347" width="12" height="12" rx="3" fill="#fff" stroke="#E8A33D" stroke-width="1.6"/><text x="1132.0" y="352.0" font-family="'Segoe UI','Helvetica Neue',Arial,'Liberation Sans',sans-serif" font-size="9.8" font-weight="700" fill="#1B2733" text-anchor="start">Confirm medical card reissue</text><text x="1132.0" y="364.0" font-family="'Segoe UI','Helvetica Neue',Arial,'Liberation Sans',sans-serif" font-size="8.4" font-weight="500" fill="#5A6B7B" text-anchor="start">F. Al-Ansari</text><rect x="1620.0" y="345.0" width="68.0" height="17.0" rx="8" ry="8" fill="#fff"/><text x="1654.0" y="356.5" font-family="'Segoe UI','Helvetica Neue',Arial,'Liberation Sans',sans-serif" font-size="8.6" font-weight="600" fill="#E8A33D" text-anchor="middle">Today</text><rect x="1100.0" y="376.0" width="592.0" height="34.0" rx="6" ry="6" fill="#F6F8FA" stroke="#E3E8EE" stroke-width="1"/><rect x="1110.0" y="387" width="12" height="12" rx="3" fill="#fff" stroke="#0D9DDA" stroke-width="1.6"/><text x="1132.0" y="392.0" font-family="'Segoe UI','Helvetica Neue',Arial,'Liberation Sans',sans-serif" font-size="9.8" font-weight="700" fill="#1B2733" text-anchor="start">Corporate visit follow-up</text><text x="1132.0" y="404.0" font-family="'Segoe UI','Helvetica Neue',Arial,'Liberation Sans',sans-serif" font-size="8.4" font-weight="500" fill="#5A6B7B" text-anchor="start">Ooredoo</text><rect x="1620.0" y="385.0" width="68.0" height="17.0" rx="8" ry="8" fill="#fff"/><text x="1654.0" y="396.5" font-family="'Segoe UI','Helvetica Neue',Arial,'Liberation Sans',sans-serif" font-size="8.6" font-weight="600" fill="#0D9DDA" text-anchor="middle">Tomorrow</text><rect x="1100.0" y="416.0" width="592.0" height="34.0" rx="6" ry="6" fill="#F6F8FA" stroke="#E3E8EE" stroke-width="1"/><rect x="1110.0" y="427" width="12" height="12" rx="3" fill="#fff" stroke="#0D9DDA" stroke-width="1.6"/><text x="1132.0" y="432.0" font-family="'Segoe UI','Helvetica Neue',Arial,'Liberation Sans',sans-serif" font-size="9.8" font-weight="700" fill="#1B2733" text-anchor="start">Reinstatement paperwork</text><text x="1132.0" y="444.0" font-family="'Segoe UI','Helvetica Neue',Arial,'Liberation Sans',sans-serif" font-size="8.4" font-weight="500" fill="#5A6B7B" text-anchor="start">INC-2043</text><rect x="1620.0" y="425.0" width="68.0" height="17.0" rx="8" ry="8" fill="#fff"/><text x="1654.0" y="436.5" font-family="'Segoe UI','Helvetica Neue',Arial,'Liberation Sans',sans-serif" font-size="8.6" font-weight="600" fill="#0D9DDA" text-anchor="middle">23 Jul</text><rect x="1100.0" y="456.0" width="592.0" height="34.0" rx="6" ry="6" fill="#F6F8FA" stroke="#E3E8EE" stroke-width="1"/><rect x="1110.0" y="467" width="12" height="12" rx="3" fill="#fff" stroke="#0D9DDA" stroke-width="1.6"/><text x="1132.0" y="472.0" font-family="'Segoe UI','Helvetica Neue',Arial,'Liberation Sans',sans-serif" font-size="9.8" font-weight="700" fill="#1B2733" text-anchor="start">Payment confirmation check</text><text x="1132.0" y="484.0" font-family="'Segoe UI','Helvetica Neue',Arial,'Liberation Sans',sans-serif" font-size="8.4" font-weight="500" fill="#5A6B7B" text-anchor="start">SkipCash</text><rect x="1620.0" y="465.0" width="68.0" height="17.0" rx="8" ry="8" fill="#fff"/><text x="1654.0" y="476.5" font-family="'Segoe UI','Helvetica Neue',Arial,'Liberation Sans',sans-serif" font-size="8.6" font-weight="600" fill="#0D9DDA" text-anchor="middle">24 Jul</text><rect x="1088.0" y="693.0" width="616.0" height="303.0" rx="9" ry="9" fill="#FFFFFF" stroke="#E3E8EE" stroke-width="1.2"/><g filter="url(#dsSoft)"><rect x="1088.0" y="693.0" width="616.0" height="303.0" rx="9" ry="9" fill="none"/></g><rect x="1100.0" y="705.0" width="22.0" height="22.0" rx="5" ry="5" fill="#F3F7FB" stroke="#E3E8EE" stroke-width="1"/><g transform="translate(1103.08,708.08) scale(0.6599999999999999)"><circle cx="5" cy="5" r="2.6" fill="#0D9DDA"/><circle cx="5" cy="19" r="2.6" fill="#0D9DDA"/><circle cx="19" cy="12" r="2.6" fill="#0D9DDA"/><path d="M5 7.6 V16.4 M7 5 Q19 5 19 12 M7 19 Q19 19 19 12" fill="none" stroke="#0D9DDA" stroke-width="1.7"/></g><text x="1130.0" y="720.0" font-family="'Segoe UI','Helvetica Neue',Arial,'Liberation Sans',sans-serif" font-size="12.5" font-weight="800" fill="#1B2733" text-anchor="start">Delivery channels</text><line x1="1100.0" y1="733.0" x2="1692.0" y2="733.0" stroke="#E3E8EE" stroke-width="1" stroke-linecap="round"/><circle cx="1692.0" cy="705.0" r="15" fill="#C79A3B" stroke="#fff" stroke-width="2"/><circle cx="1692.0" cy="705.0" r="15" fill="none" stroke="#082C6B" stroke-width="1" opacity="0.5"/><text x="1692.0" y="710.4" font-family="'Segoe UI','Helvetica Neue',Arial,'Liberation Sans',sans-serif" font-size="14.25" font-weight="900" fill="#3a2a06" text-anchor="middle">4</text><rect x="1100.0" y="741.0" width="190.7" height="50.0" rx="8" ry="8" fill="#E3F3FC"/><rect x="1183.3" y="749.0" width="24.0" height="24.0" rx="5" ry="5" fill="#F3F7FB" stroke="#E3E8EE" stroke-width="1"/><g transform="translate(1186.6933333333332,752.36) scale(0.72)"><path d="M12 3 Q17 3 17 9 V13 L19 16 H5 L7 13 V9 Q7 3 12 3 Z" fill="#0D9DDA"/><circle cx="12" cy="18.5" r="2" fill="#0D9DDA"/></g><text x="1195.3" y="785.0" font-family="'Segoe UI','Helvetica Neue',Arial,'Liberation Sans',sans-serif" font-size="9.4" font-weight="700" fill="#0B5CAB" text-anchor="middle">In-app</text><rect x="1300.7" y="741.0" width="190.7" height="50.0" rx="8" ry="8" fill="#E3F3FC"/><rect x="1384.0" y="749.0" width="24.0" height="24.0" rx="5" ry="5" fill="#F3F7FB" stroke="#E3E8EE" stroke-width="1"/><text x="1396.0" y="785.0" font-family="'Segoe UI','Helvetica Neue',Arial,'Liberation Sans',sans-serif" font-size="9.4" font-weight="700" fill="#0B5CAB" text-anchor="middle">Email</text><rect x="1501.3" y="741.0" width="190.7" height="50.0" rx="8" ry="8" fill="#E3F3FC"/><rect x="1584.7" y="749.0" width="24.0" height="24.0" rx="5" ry="5" fill="#F3F7FB" stroke="#E3E8EE" stroke-width="1"/><text x="1596.7" y="785.0" font-family="'Segoe UI','Helvetica Neue',Arial,'Liberation Sans',sans-serif" font-size="9.4" font-weight="700" fill="#0B5CAB" text-anchor="middle">WhatsApp</text><rect x="0" y="1054" width="1760" height="46" fill="#0E2647"/><rect x="0" y="1054" width="1760" height="2.5" fill="#C79A3B"/><text x="40.0" y="1082.0" font-family="'Segoe UI','Helvetica Neue',Arial,'Liberation Sans',sans-serif" font-size="12" font-weight="600" fill="#CBD6E1" text-anchor="start">QGIRCO Enterprise CRM Implementation  ·  Technical Proposal</text><text x="880.0" y="1082.0" font-family="'Segoe UI','Helvetica Neue',Arial,'Liberation Sans',sans-serif" font-size="11.5" font-weight="700" fill="#C79A3B" text-anchor="middle">Solution option: Salesforce</text><text x="1720.0" y="1082.0" font-family="'Segoe UI','Helvetica Neue',Arial,'Liberation Sans',sans-serif" font-size="11.5" font-weight="500" fill="#CBD6E1" text-anchor="end">Trion Technology  ×  Volge   ·   FR-Ntf · Notifications &amp; Follow-ups</text></svg>