<svg xmlns="http://www.w3.org/2000/svg" width="1760" height="1100" viewBox="0 0 1760 1100" font-family="'Segoe UI','Helvetica Neue',Arial,'Liberation Sans',sans-serif"><defs>
  <linearGradient id="qicHead" x1="0" y1="0" x2="1" y2="0">
    <stop offset="0" stop-color="#16283A"/>
    <stop offset="0.62" stop-color="#5E0E26"/>
    <stop offset="1" stop-color="#8A1538"/>
  </linearGradient>
  <linearGradient id="pfBadge" x1="0" y1="0" x2="0" y2="1">
    <stop offset="0" stop-color="#0F6CBD"/>
    <stop offset="1" stop-color="#0A4C86"/>
  </linearGradient>
  <linearGradient id="pfBand" x1="0" y1="0" x2="0" y2="1">
    <stop offset="0" stop-color="#0F6CBD"/>
    <stop offset="1" stop-color="#052B4E"/>
  </linearGradient>
  <linearGradient id="aiGrad" x1="0" y1="0" x2="1" y2="1">
    <stop offset="0" stop-color="#8E5BE8"/>
    <stop offset="1" stop-color="#0F6CBD"/>
  </linearGradient>
  <filter id="ds" x="-8%" y="-8%" width="116%" height="120%">
    <feDropShadow dx="0" dy="2.5" stdDeviation="4.5" flood-color="#1b283a" flood-opacity="0.16"/>
  </filter>
  <filter id="dsSoft" x="-20%" y="-20%" width="140%" height="150%">
    <feDropShadow dx="0" dy="1.5" stdDeviation="2.5" flood-color="#1b283a" flood-opacity="0.13"/>
  </filter>
  <marker id="arr" markerWidth="11" markerHeight="11" refX="8.5" refY="5.5" orient="auto">
    <path d="M1,1 L9.5,5.5 L1,10" fill="none" stroke="#5A6B7B" stroke-width="1.8" stroke-linecap="round" stroke-linejoin="round"/>
  </marker>
  <marker id="arrP" markerWidth="11" markerHeight="11" refX="8.5" refY="5.5" orient="auto">
    <path d="M1,1 L9.5,5.5 L1,10" fill="none" stroke="#0A4C86" stroke-width="1.9" stroke-linecap="round" stroke-linejoin="round"/>
  </marker>
  <marker id="arrG" markerWidth="11" markerHeight="11" refX="8.5" refY="5.5" orient="auto">
    <path d="M1,1 L9.5,5.5 L1,10" fill="none" stroke="#C9A24B" stroke-width="2" stroke-linecap="round" stroke-linejoin="round"/>
  </marker>
  <marker id="dot" markerWidth="8" markerHeight="8" refX="4" refY="4">
    <circle cx="4" cy="4" r="3" fill="#0F6CBD"/>
  </marker>
</defs><rect width="1760" height="1100" fill="#EEF2F6"/><rect x="0" y="0" width="1760" height="104" fill="url(#qicHead)"/><rect x="0" y="100" width="1760" height="4" fill="#C9A24B"/><circle cx="70" cy="52.0" r="26" fill="#ffffff" opacity="0.10"/><circle cx="70" cy="52.0" r="22" fill="none" stroke="#C9A24B" stroke-width="2"/><path d="M70 38.0 L83 46.0 L83 59.0 Q83 65.0 70 68.0 Q57 65.0 57 59.0 L57 46.0 Z" fill="#ffffff"/><path d="M70 44.0 L77 48.5 L77 56.0 Q77 59.5 70 61.5 Q63 59.5 63 56.0 L63 48.5 Z" fill="#8A1538"/><text x="114.0" y="40.0" font-family="'Segoe UI','Helvetica Neue',Arial,'Liberation Sans',sans-serif" font-size="27" font-weight="800" fill="#ffffff" text-anchor="start" letter-spacing="2">QICIRCO</text><text x="114.0" y="63.0" font-family="'Segoe UI','Helvetica Neue',Arial,'Liberation Sans',sans-serif" font-size="13.5" font-weight="500" fill="#EBD9C2" text-anchor="start">Qatar General Insurance &amp; Reinsurance Company</text><text x="114.0" y="84.0" font-family="'Segoe UI','Helvetica Neue',Arial,'Liberation Sans',sans-serif" font-size="11.5" font-weight="700" fill="#C9A24B" text-anchor="start" letter-spacing="2.5">REQUIREMENT → REALIZED IN PRODUCT</text><text x="940.0" y="52.0" font-family="'Segoe UI','Helvetica Neue',Arial,'Liberation Sans',sans-serif" font-size="22" font-weight="700" fill="#ffffff" text-anchor="middle">Responsive Web &amp; Mobile Access</text><text x="940.0" y="76.0" font-family="'Segoe UI','Helvetica Neue',Arial,'Liberation Sans',sans-serif" font-size="13" font-weight="400" fill="#D9C3AD" text-anchor="middle" font-style="italic">How the Microsoft Dynamics 365 solution addresses this QICIRCO requirement</text><rect x="1452.0" y="26.0" width="268.0" height="52.0" rx="10" ry="10" fill="#ffffff" opacity="0.97"/><rect x="1464.2" y="38.2" width="12.972000000000001" height="12.972000000000001" fill="#F25022"/><rect x="1478.828" y="38.2" width="12.972000000000001" height="12.972000000000001" fill="#7FBA00"/><rect x="1464.2" y="52.828" width="12.972000000000001" height="12.972000000000001" fill="#00A4EF"/><rect x="1478.828" y="52.828" width="12.972000000000001" height="12.972000000000001" fill="#FFB900"/><text x="1502.0" y="49.0" font-family="'Segoe UI','Helvetica Neue',Arial,'Liberation Sans',sans-serif" font-size="15.5" font-weight="800" fill="#052B4E" text-anchor="start">Microsoft Dynamics 365</text><text x="1502.0" y="66.0" font-family="'Segoe UI','Helvetica Neue',Arial,'Liberation Sans',sans-serif" font-size="9.6" font-weight="600" fill="#0A4C86" text-anchor="start">Customer Engagement · Power Platform · Azure</text><rect x="40.0" y="124.0" width="372.0" height="916.0" rx="12" ry="12" fill="#fff" stroke="#D5DEE7" stroke-width="1.4"/><g filter="url(#dsSoft)"><rect x="40.0" y="124.0" width="372.0" height="916.0" rx="12" ry="12" fill="none"/></g><rect x="40.0" y="124.0" width="372.0" height="6.0" rx="3" ry="3" fill="#8A1538"/><text x="58.0" y="154.0" font-family="'Segoe UI','Helvetica Neue',Arial,'Liberation Sans',sans-serif" font-size="11" font-weight="800" fill="#8A1538" text-anchor="start" letter-spacing="2">REQUIREMENT</text><rect x="340.0" y="140.0" width="54.0" height="20.0" rx="6" ry="6" fill="#16283A"/><text x="367.0" y="154.0" font-family="'Segoe UI','Helvetica Neue',Arial,'Liberation Sans',sans-serif" font-size="11" font-weight="800" fill="#fff" text-anchor="middle">NFR-Usab</text><text x="58.0" y="178.0" font-family="'Segoe UI','Helvetica Neue',Arial,'Liberation Sans',sans-serif" font-size="15.5" font-weight="800" fill="#052B4E" text-anchor="start"><tspan x="58.0" dy="0">Mobile &amp; Responsive Access</tspan></text><rect x="58.0" y="203.0" width="51.6" height="17.0" rx="8" ry="8" fill="#F6F8FB" stroke="#D5DEE7" stroke-width="1"/><text x="83.8" y="215.0" font-family="'Segoe UI','Helvetica Neue',Arial,'Liberation Sans',sans-serif" font-size="8.8" font-weight="700" fill="#22384E" text-anchor="middle">RFP §6</text><rect x="115.6" y="203.0" width="107.6" height="17.0" rx="8" ry="8" fill="#F6F8FB" stroke="#D5DEE7" stroke-width="1"/><text x="169.4" y="215.0" font-family="'Segoe UI','Helvetica Neue',Arial,'Liberation Sans',sans-serif" font-size="8.8" font-weight="700" fill="#22384E" text-anchor="middle">BRD §8.3 / §17.3</text><rect x="229.2" y="203.0" width="152.4" height="17.0" rx="8" ry="8" fill="#F6F8FB" stroke="#D5DEE7" stroke-width="1"/><text x="305.4" y="215.0" font-family="'Segoe UI','Helvetica Neue',Arial,'Liberation Sans',sans-serif" font-size="8.8" font-weight="700" fill="#22384E" text-anchor="middle">Proposal NFR — usability</text><circle cx="61" cy="230" r="2.4" fill="#0F6CBD"/><text x="72.0" y="233.0" font-family="'Segoe UI','Helvetica Neue',Arial,'Liberation Sans',sans-serif" font-size="10.6" font-weight="500" fill="#1B2733" text-anchor="start"><tspan x="72.0" dy="0">Responsive web interface for desktop,</tspan><tspan x="72.0" dy="14">tablet and mobile.</tspan></text><circle cx="61" cy="266" r="2.4" fill="#0F6CBD"/><text x="72.0" y="269.0" font-family="'Segoe UI','Helvetica Neue',Arial,'Liberation Sans',sans-serif" font-size="10.6" font-weight="500" fill="#1B2733" text-anchor="start"><tspan x="72.0" dy="0">Mobile access for field sales and</tspan><tspan x="72.0" dy="14">servicing teams; validation, dropdowns,</tspan><tspan x="72.0" dy="14">auto-save.</tspan></text><circle cx="61" cy="316" r="2.4" fill="#0F6CBD"/><text x="72.0" y="319.0" font-family="'Segoe UI','Helvetica Neue',Arial,'Liberation Sans',sans-serif" font-size="10.6" font-weight="500" fill="#1B2733" text-anchor="start"><tspan x="72.0" dy="0">Foundation for future voice-to-text and</tspan><tspan x="72.0" dy="14">geo-tagging.</tspan></text><line x1="58.0" y1="359.0" x2="394.0" y2="359.0" stroke="#D5DEE7" stroke-width="1" stroke-linecap="round"/><rect x="58.0" y="366.0" width="20.0" height="20.0" rx="5" ry="5" fill="#F3F7FB" stroke="#E3E8EE" stroke-width="1"/><g transform="translate(60.8,368.8) scale(0.6)"><path d="M3 18 A9 9 0 0 1 21 18" fill="none" stroke="#0F6CBD" stroke-width="2.4"/><line x1="12" y1="18" x2="16" y2="12" stroke="#0F6CBD" stroke-width="2.2" stroke-linecap="round"/><circle cx="12" cy="18" r="2" fill="#0F6CBD"/></g><text x="86.0" y="381.0" font-family="'Segoe UI','Helvetica Neue',Arial,'Liberation Sans',sans-serif" font-size="10.5" font-weight="800" fill="#052B4E" text-anchor="start" letter-spacing="0.5">HOW MICROSOFT DYNAMICS 365 DELIVERS IT</text><circle cx="68" cy="401" r="11" fill="#C9A24B" stroke="#fff" stroke-width="2"/><circle cx="68" cy="401" r="11" fill="none" stroke="#5E0E26" stroke-width="1" opacity="0.5"/><text x="68.0" y="405.0" font-family="'Segoe UI','Helvetica Neue',Arial,'Liberation Sans',sans-serif" font-size="10.45" font-weight="900" fill="#3a2a06" text-anchor="middle">1</text><text x="86.0" y="397.0" font-family="'Segoe UI','Helvetica Neue',Arial,'Liberation Sans',sans-serif" font-size="10.4" font-weight="500" fill="#1B2733" text-anchor="start"><tspan x="86.0" dy="0">The same solution renders responsively</tspan><tspan x="86.0" dy="13.5">on desktop, tablet and phone.</tspan></text><circle cx="68" cy="435.0" r="11" fill="#C9A24B" stroke="#fff" stroke-width="2"/><circle cx="68" cy="435.0" r="11" fill="none" stroke="#5E0E26" stroke-width="1" opacity="0.5"/><text x="68.0" y="439.0" font-family="'Segoe UI','Helvetica Neue',Arial,'Liberation Sans',sans-serif" font-size="10.45" font-weight="900" fill="#3a2a06" text-anchor="middle">2</text><text x="86.0" y="431.0" font-family="'Segoe UI','Helvetica Neue',Arial,'Liberation Sans',sans-serif" font-size="10.4" font-weight="500" fill="#1B2733" text-anchor="start"><tspan x="86.0" dy="0">Field sellers manage accounts, visits</tspan><tspan x="86.0" dy="13.5">and activities on the mobile app.</tspan></text><circle cx="68" cy="469.0" r="11" fill="#C9A24B" stroke="#fff" stroke-width="2"/><circle cx="68" cy="469.0" r="11" fill="none" stroke="#5E0E26" stroke-width="1" opacity="0.5"/><text x="68.0" y="473.0" font-family="'Segoe UI','Helvetica Neue',Arial,'Liberation Sans',sans-serif" font-size="10.45" font-weight="900" fill="#3a2a06" text-anchor="middle">3</text><text x="86.0" y="465.0" font-family="'Segoe UI','Helvetica Neue',Arial,'Liberation Sans',sans-serif" font-size="10.4" font-weight="500" fill="#1B2733" text-anchor="start"><tspan x="86.0" dy="0">Agents service cases on the go with</tspan><tspan x="86.0" dy="13.5">guided, validated forms.</tspan></text><circle cx="68" cy="503.0" r="11" fill="#C9A24B" stroke="#fff" stroke-width="2"/><circle cx="68" cy="503.0" r="11" fill="none" stroke="#5E0E26" stroke-width="1" opacity="0.5"/><text x="68.0" y="507.0" font-family="'Segoe UI','Helvetica Neue',Arial,'Liberation Sans',sans-serif" font-size="10.45" font-weight="900" fill="#3a2a06" text-anchor="middle">4</text><text x="86.0" y="499.0" font-family="'Segoe UI','Helvetica Neue',Arial,'Liberation Sans',sans-serif" font-size="10.4" font-weight="500" fill="#1B2733" text-anchor="start"><tspan x="86.0" dy="0">Roadmap-ready for voice-to-text capture</tspan><tspan x="86.0" dy="13.5">and geo-tagged visits.</tspan></text><rect x="428.0" y="124.0" width="1292.0" height="916.0" rx="10" ry="10" fill="#fff" stroke="#C7D2DE" stroke-width="1.4"/><g filter="url(#ds)"><rect x="428.0" y="124.0" width="1292.0" height="916.0" rx="10" ry="10" fill="none"/></g><rect x="428.0" y="124.0" width="1292.0" height="26.0" rx="10" ry="10" fill="#E7ECF2"/><rect x="428.0" y="140.0" width="1292.0" height="10.0" rx="12" ry="12" fill="#E7ECF2"/><circle cx="444" cy="137.0" r="4.2" fill="#F25F5C"/><circle cx="459" cy="137.0" r="4.2" fill="#FFB84D"/><circle cx="474" cy="137.0" r="4.2" fill="#2ECC71"/><rect x="498.0" y="130.0" width="1152.0" height="14.0" rx="7" ry="7" fill="#FFFFFF" stroke="#D4DCE5" stroke-width="1"/><circle cx="512" cy="137.0" r="3.4" fill="#1E9E5A"/><text x="522.0" y="140.4" font-family="'Segoe UI','Helvetica Neue',Arial,'Liberation Sans',sans-serif" font-size="9.4" font-weight="500" fill="#5A6B7B" text-anchor="start">org.crm.dynamics.com</text><rect x="428.0" y="150.0" width="1292.0" height="42.0" rx="12" ry="12" fill="#0B1F3A"/><rect x="444.0" y="166.0" width="2.9" height="2.9" rx="0.6" fill="#ffffff"/><rect x="449.2" y="166.0" width="2.9" height="2.9" rx="0.6" fill="#ffffff"/><rect x="454.4" y="166.0" width="2.9" height="2.9" rx="0.6" fill="#ffffff"/><rect x="444.0" y="171.2" width="2.9" height="2.9" rx="0.6" fill="#ffffff"/><rect x="449.2" y="171.2" width="2.9" height="2.9" rx="0.6" fill="#ffffff"/><rect x="454.4" y="171.2" width="2.9" height="2.9" rx="0.6" fill="#ffffff"/><rect x="444.0" y="176.4" width="2.9" height="2.9" rx="0.6" fill="#ffffff"/><rect x="449.2" y="176.4" width="2.9" height="2.9" rx="0.6" fill="#ffffff"/><rect x="454.4" y="176.4" width="2.9" height="2.9" rx="0.6" fill="#ffffff"/><text x="470.0" y="175.0" font-family="'Segoe UI','Helvetica Neue',Arial,'Liberation Sans',sans-serif" font-size="12.6" font-weight="700" fill="#fff" text-anchor="start">Dynamics 365</text><line x1="576.0" y1="160.0" x2="576.0" y2="182.0" stroke="#3a5170" stroke-width="1" stroke-linecap="round"/><text x="590.0" y="175.0" font-family="'Segoe UI','Helvetica Neue',Arial,'Liberation Sans',sans-serif" font-size="11.4" font-weight="600" fill="#DCE8F5" text-anchor="start">Customer Service</text><rect x="884.0" y="158.0" width="380.0" height="26.0" rx="4" ry="4" fill="#12324f" stroke="#284a6e" stroke-width="1"/><text x="898.0" y="175.0" font-family="'Segoe UI','Helvetica Neue',Arial,'Liberation Sans',sans-serif" font-size="10.4" font-weight="500" fill="#8AA2BC" text-anchor="start">⌕  Search</text><text x="1700.0" y="175.5" font-family="'Segoe UI','Helvetica Neue',Arial,'Liberation Sans',sans-serif" font-size="11.5" font-weight="400" fill="#B9CBDD" text-anchor="end">➕</text><text x="1675.0" y="175.5" font-family="'Segoe UI','Helvetica Neue',Arial,'Liberation Sans',sans-serif" font-size="11.5" font-weight="400" fill="#B9CBDD" text-anchor="end">⚙</text><text x="1650.0" y="175.5" font-family="'Segoe UI','Helvetica Neue',Arial,'Liberation Sans',sans-serif" font-size="11.5" font-weight="400" fill="#B9CBDD" text-anchor="end">?</text><text x="1625.0" y="175.5" font-family="'Segoe UI','Helvetica Neue',Arial,'Liberation Sans',sans-serif" font-size="11.5" font-weight="400" fill="#B9CBDD" text-anchor="end">▣</text><text x="1600.0" y="175.5" font-family="'Segoe UI','Helvetica Neue',Arial,'Liberation Sans',sans-serif" font-size="11.5" font-weight="400" fill="#B9CBDD" text-anchor="end">◔</text><circle cx="1698" cy="171.0" r="11" fill="#C9A24B"/><text x="1698.0" y="174.7" font-family="'Segoe UI','Helvetica Neue',Arial,'Liberation Sans',sans-serif" font-size="9.02" font-weight="700" fill="#fff" text-anchor="middle">SA</text><rect x="428.0" y="192.0" width="1292.0" height="36.0" rx="12" ry="12" fill="#FBFCFD" stroke="#E3E8EE" stroke-width="1"/><text x="444.0" y="214.5" font-family="'Segoe UI','Helvetica Neue',Arial,'Liberation Sans',sans-serif" font-size="13" font-weight="700" fill="#0F6CBD" text-anchor="start">←</text><text x="468.0" y="214.5" font-family="'Segoe UI','Helvetica Neue',Arial,'Liberation Sans',sans-serif" font-size="10.5" font-weight="700" fill="#0F6CBD" text-anchor="start">➕</text><text x="483.0" y="214.5" font-family="'Segoe UI','Helvetica Neue',Arial,'Liberation Sans',sans-serif" font-size="10.4" font-weight="600" fill="#1B2733" text-anchor="start">New</text><text x="522.6" y="214.5" font-family="'Segoe UI','Helvetica Neue',Arial,'Liberation Sans',sans-serif" font-size="10.5" font-weight="700" fill="#0F6CBD" text-anchor="start">💾</text><text x="537.6" y="214.5" font-family="'Segoe UI','Helvetica Neue',Arial,'Liberation Sans',sans-serif" font-size="10.4" font-weight="600" fill="#1B2733" text-anchor="start">Save</text><text x="583.4" y="214.5" font-family="'Segoe UI','Helvetica Neue',Arial,'Liberation Sans',sans-serif" font-size="10.5" font-weight="700" fill="#0F6CBD" text-anchor="start">✓</text><text x="598.4" y="214.5" font-family="'Segoe UI','Helvetica Neue',Arial,'Liberation Sans',sans-serif" font-size="10.4" font-weight="600" fill="#1B2733" text-anchor="start">Save &amp; Close</text><text x="693.8" y="214.5" font-family="'Segoe UI','Helvetica Neue',Arial,'Liberation Sans',sans-serif" font-size="10.5" font-weight="700" fill="#0F6CBD" text-anchor="start">↻</text><text x="708.8" y="214.5" font-family="'Segoe UI','Helvetica Neue',Arial,'Liberation Sans',sans-serif" font-size="10.4" font-weight="600" fill="#1B2733" text-anchor="start">Refresh</text><text x="773.2" y="214.5" font-family="'Segoe UI','Helvetica Neue',Arial,'Liberation Sans',sans-serif" font-size="10.5" font-weight="700" fill="#0F6CBD" text-anchor="start">⚑</text><text x="788.2" y="214.5" font-family="'Segoe UI','Helvetica Neue',Arial,'Liberation Sans',sans-serif" font-size="10.4" font-weight="600" fill="#1B2733" text-anchor="start">Flow</text><text x="834.0" y="214.5" font-family="'Segoe UI','Helvetica Neue',Arial,'Liberation Sans',sans-serif" font-size="10.5" font-weight="700" fill="#0F6CBD" text-anchor="start">⋯</text><text x="849.0" y="214.5" font-family="'Segoe UI','Helvetica Neue',Arial,'Liberation Sans',sans-serif" font-size="10.4" font-weight="600" fill="#1B2733" text-anchor="start">More</text><rect x="1524.0" y="198.0" width="184.0" height="24.0" rx="4" ry="4" fill="#fff" stroke="#E3E8EE" stroke-width="1"/><text x="1534.0" y="214.0" font-family="'Segoe UI','Helvetica Neue',Arial,'Liberation Sans',sans-serif" font-size="9.6" font-weight="600" fill="#5A6B7B" text-anchor="start">Active records  ▾</text><rect x="428.0" y="228.0" width="158.0" height="812.0" rx="12" ry="12" fill="#FAFBFC" stroke="#E3E8EE" stroke-width="1"/><text x="442.0" y="250.0" font-family="'Segoe UI','Helvetica Neue',Arial,'Liberation Sans',sans-serif" font-size="9" font-weight="800" fill="#94A3B2" text-anchor="start" letter-spacing="0.5">CUSTOMER SERVICE</text><line x1="440.0" y1="258.0" x2="574.0" y2="258.0" stroke="#E3E8EE" stroke-width="1" stroke-linecap="round"/><rect x="442.0" y="270.0" width="18.0" height="18.0" rx="5" ry="5" fill="#F3F7FB" stroke="#E3E8EE" stroke-width="1"/><g transform="translate(444.52,272.52) scale(0.54)"><circle cx="10" cy="10" r="6.5" fill="none" stroke="#0F6CBD" stroke-width="2.4"/><line x1="14.8" y1="14.8" x2="21" y2="21" stroke="#0F6CBD" stroke-width="2.6" stroke-linecap="round"/></g><text x="468.0" y="283.0" font-family="'Segoe UI','Helvetica Neue',Arial,'Liberation Sans',sans-serif" font-size="10.4" font-weight="600" fill="#5A6B7B" text-anchor="start">Search</text><rect x="428.0" y="298.0" width="158.0" height="30.0" rx="12" ry="12" fill="#EAF2FB"/><rect x="428.0" y="298.0" width="3.0" height="30.0" rx="12" ry="12" fill="#0F6CBD"/><rect x="442.0" y="302.0" width="18.0" height="18.0" rx="5" ry="5" fill="#F3F7FB" stroke="#E3E8EE" stroke-width="1"/><g transform="translate(444.52,304.52) scale(0.54)"><circle cx="12" cy="12" r="10.5" fill="none" stroke="#0F6CBD" stroke-width="1.8" stroke-dasharray="3 2.6"/><circle cx="12" cy="10" r="3.4" fill="#0F6CBD"/><path d="M5.5 19 Q5.5 13.5 12 13.5 Q18.5 13.5 18.5 19 Z" fill="#0F6CBD"/></g><text x="468.0" y="315.0" font-family="'Segoe UI','Helvetica Neue',Arial,'Liberation Sans',sans-serif" font-size="10.4" font-weight="700" fill="#1B2733" text-anchor="start">Customers</text><rect x="442.0" y="334.0" width="18.0" height="18.0" rx="5" ry="5" fill="#F3F7FB" stroke="#E3E8EE" stroke-width="1"/><g transform="translate(444.52,336.52) scale(0.54)"><rect x="3" y="6.5" width="18" height="13" rx="2.2" fill="#0F6CBD"/><path d="M9 6.5 V5 Q9 3.5 10.5 3.5 H13.5 Q15 3.5 15 5 V6.5" fill="none" stroke="#0F6CBD" stroke-width="1.8"/><rect x="6" y="10" width="12" height="1.7" rx="0.8" fill="#fff"/><rect x="6" y="13.5" width="8" height="1.7" rx="0.8" fill="#fff"/></g><text x="468.0" y="347.0" font-family="'Segoe UI','Helvetica Neue',Arial,'Liberation Sans',sans-serif" font-size="10.4" font-weight="600" fill="#5A6B7B" text-anchor="start">Cases</text><rect x="442.0" y="366.0" width="18.0" height="18.0" rx="5" ry="5" fill="#F3F7FB" stroke="#E3E8EE" stroke-width="1"/><g transform="translate(444.52,368.52) scale(0.54)"><circle cx="12" cy="12" r="10" fill="#0F6CBD"/><path d="M12 6 V12 L16 14" fill="none" stroke="#fff" stroke-width="2" stroke-linecap="round"/></g><text x="468.0" y="379.0" font-family="'Segoe UI','Helvetica Neue',Arial,'Liberation Sans',sans-serif" font-size="10.4" font-weight="600" fill="#5A6B7B" text-anchor="start">SLA / Queues</text><rect x="442.0" y="398.0" width="18.0" height="18.0" rx="5" ry="5" fill="#F3F7FB" stroke="#E3E8EE" stroke-width="1"/><g transform="translate(444.52,400.52) scale(0.54)"><circle cx="8" cy="8" r="3.2" fill="#0F6CBD"/><circle cx="16.5" cy="8.5" r="2.7" fill="#0F6CBD" opacity="0.75"/><path d="M2.5 20 Q2.5 12.5 8 12.5 Q13.5 12.5 13.5 20 Z" fill="#0F6CBD"/><path d="M13.5 20 Q13.5 13.5 16.5 13.5 Q21.5 13.5 21.5 20 Z" fill="#0F6CBD" opacity="0.75"/></g><text x="468.0" y="411.0" font-family="'Segoe UI','Helvetica Neue',Arial,'Liberation Sans',sans-serif" font-size="10.4" font-weight="600" fill="#5A6B7B" text-anchor="start">Accounts</text><rect x="442.0" y="430.0" width="18.0" height="18.0" rx="5" ry="5" fill="#F3F7FB" stroke="#E3E8EE" stroke-width="1"/><g transform="translate(444.52,432.52) scale(0.54)"><rect x="3" y="12" width="4" height="9" fill="#0F6CBD"/><rect x="10" y="7" width="4" height="14" fill="#0F6CBD"/><rect x="17" y="3" width="4" height="18" fill="#0F6CBD"/></g><text x="468.0" y="443.0" font-family="'Segoe UI','Helvetica Neue',Arial,'Liberation Sans',sans-serif" font-size="10.4" font-weight="600" fill="#5A6B7B" text-anchor="start">Dashboards</text><rect x="442.0" y="462.0" width="18.0" height="18.0" rx="5" ry="5" fill="#F3F7FB" stroke="#E3E8EE" stroke-width="1"/><g transform="translate(444.52,464.52) scale(0.54)"><circle cx="5" cy="6" r="3" fill="#0F6CBD"/><circle cx="19" cy="6" r="3" fill="#0F6CBD"/><circle cx="12" cy="18" r="3" fill="#0F6CBD"/><path d="M5 9 V11 Q5 15 12 15 M19 9 V11 Q19 15 12 15" fill="none" stroke="#0F6CBD" stroke-width="1.8"/></g><text x="468.0" y="475.0" font-family="'Segoe UI','Helvetica Neue',Arial,'Liberation Sans',sans-serif" font-size="10.4" font-weight="600" fill="#5A6B7B" text-anchor="start">Workflows</text><line x1="440.0" y1="1000.0" x2="574.0" y2="1000.0" stroke="#E3E8EE" stroke-width="1" stroke-linecap="round"/><text x="442.0" y="1020.0" font-family="'Segoe UI','Helvetica Neue',Arial,'Liberation Sans',sans-serif" font-size="9.6" font-weight="700" fill="#0F6CBD" text-anchor="start">Customer Service  ▴</text><rect x="586.0" y="228.0" width="1134.0" height="812.0" rx="12" ry="12" fill="#F1F3F7"/><rect x="709.5" y="250.0" width="224.0" height="330.0" rx="22" ry="22" fill="#1B2733"/><rect x="714.5" y="255.0" width="214.0" height="320.0" rx="18" ry="18" fill="#fff"/><rect x="795.5" y="260.0" width="52.0" height="5.0" rx="2.5" ry="2.5" fill="#1B2733"/><rect x="717.5" y="272.0" width="208.0" height="26.0" rx="4" ry="4" fill="#052B4E"/><rect x="725.5" y="276.0" width="18.0" height="18.0" rx="5" ry="5" fill="#F3F7FB" stroke="#E3E8EE" stroke-width="1"/><g transform="translate(728.02,278.52) scale(0.54)"><rect x="3" y="6.5" width="18" height="13" rx="2.2" fill="#fff"/><path d="M9 6.5 V5 Q9 3.5 10.5 3.5 H13.5 Q15 3.5 15 5 V6.5" fill="none" stroke="#fff" stroke-width="1.8"/><rect x="6" y="10" width="12" height="1.7" rx="0.8" fill="#fff"/><rect x="6" y="13.5" width="8" height="1.7" rx="0.8" fill="#fff"/></g><text x="749.5" y="289.0" font-family="'Segoe UI','Helvetica Neue',Arial,'Liberation Sans',sans-serif" font-size="9" font-weight="700" fill="#fff" text-anchor="start">Field sales · account</text><rect x="725.5" y="306.0" width="192.0" height="44.0" rx="6" ry="6" fill="#F6F8FA"/><circle cx="743.5" cy="328" r="13" fill="#0F6CBD"/><text x="743.5" y="332.4" font-family="'Segoe UI','Helvetica Neue',Arial,'Liberation Sans',sans-serif" font-size="10.66" font-weight="700" fill="#fff" text-anchor="middle">OO</text><text x="763.5" y="324.0" font-family="'Segoe UI','Helvetica Neue',Arial,'Liberation Sans',sans-serif" font-size="9.6" font-weight="800" fill="#1B2733" text-anchor="start">Ooredoo Q.S.C.</text><text x="763.5" y="338.0" font-family="'Segoe UI','Helvetica Neue',Arial,'Liberation Sans',sans-serif" font-size="8" font-weight="500" fill="#5A6B7B" text-anchor="start">Corporate · QAR 3.1M</text><rect x="725.5" y="358.0" width="192.0" height="30.0" rx="5" ry="5" fill="#fff" stroke="#E3E8EE" stroke-width="1"/><text x="733.5" y="370.0" font-family="'Segoe UI','Helvetica Neue',Arial,'Liberation Sans',sans-serif" font-size="6.8" font-weight="700" fill="#94A3B2" text-anchor="start">NEXT RENEWAL</text><text x="733.5" y="383.0" font-family="'Segoe UI','Helvetica Neue',Arial,'Liberation Sans',sans-serif" font-size="9" font-weight="700" fill="#1B2733" text-anchor="start">03 Nov</text><rect x="725.5" y="392.0" width="192.0" height="30.0" rx="5" ry="5" fill="#fff" stroke="#E3E8EE" stroke-width="1"/><text x="733.5" y="404.0" font-family="'Segoe UI','Helvetica Neue',Arial,'Liberation Sans',sans-serif" font-size="6.8" font-weight="700" fill="#94A3B2" text-anchor="start">OPEN OPPS</text><text x="733.5" y="417.0" font-family="'Segoe UI','Helvetica Neue',Arial,'Liberation Sans',sans-serif" font-size="9" font-weight="700" fill="#1B2733" text-anchor="start">2 · QAR 1.4M</text><rect x="725.5" y="426.0" width="192.0" height="30.0" rx="5" ry="5" fill="#fff" stroke="#E3E8EE" stroke-width="1"/><text x="733.5" y="438.0" font-family="'Segoe UI','Helvetica Neue',Arial,'Liberation Sans',sans-serif" font-size="6.8" font-weight="700" fill="#94A3B2" text-anchor="start">OWNER</text><text x="733.5" y="451.0" font-family="'Segoe UI','Helvetica Neue',Arial,'Liberation Sans',sans-serif" font-size="9" font-weight="700" fill="#1B2733" text-anchor="start">N. Al-Sadi</text><rect x="725.5" y="464.0" width="192.0" height="34.0" rx="8" ry="8" fill="#E8F1FB" stroke="#0F6CBD" stroke-width="1.2"/><text x="821.5" y="480.0" font-family="'Segoe UI','Helvetica Neue',Arial,'Liberation Sans',sans-serif" font-size="8.6" font-weight="700" fill="#0A4C86" text-anchor="middle">🎤  Log visit · voice-to-text</text><text x="821.5" y="491.0" font-family="'Segoe UI','Helvetica Neue',Arial,'Liberation Sans',sans-serif" font-size="7.2" font-weight="500" fill="#5A6B7B" text-anchor="middle">📍 geo-tagged  ·  roadmap</text><circle cx="927.5" cy="256" r="15" fill="#C9A24B" stroke="#fff" stroke-width="2"/><circle cx="927.5" cy="256" r="15" fill="none" stroke="#5E0E26" stroke-width="1" opacity="0.5"/><text x="927.5" y="261.4" font-family="'Segoe UI','Helvetica Neue',Arial,'Liberation Sans',sans-serif" font-size="14.25" font-weight="900" fill="#3a2a06" text-anchor="middle">1</text><rect x="1041.0" y="250.0" width="224.0" height="330.0" rx="22" ry="22" fill="#1B2733"/><rect x="1046.0" y="255.0" width="214.0" height="320.0" rx="18" ry="18" fill="#fff"/><rect x="1127.0" y="260.0" width="52.0" height="5.0" rx="2.5" ry="2.5" fill="#1B2733"/><rect x="1049.0" y="272.0" width="208.0" height="26.0" rx="4" ry="4" fill="#052B4E"/><rect x="1057.0" y="276.0" width="18.0" height="18.0" rx="5" ry="5" fill="#F3F7FB" stroke="#E3E8EE" stroke-width="1"/><g transform="translate(1059.52,278.52) scale(0.54)"><rect x="3" y="6.5" width="18" height="13" rx="2.2" fill="#fff"/><path d="M9 6.5 V5 Q9 3.5 10.5 3.5 H13.5 Q15 3.5 15 5 V6.5" fill="none" stroke="#fff" stroke-width="1.8"/><rect x="6" y="10" width="12" height="1.7" rx="0.8" fill="#fff"/><rect x="6" y="13.5" width="8" height="1.7" rx="0.8" fill="#fff"/></g><text x="1081.0" y="289.0" font-family="'Segoe UI','Helvetica Neue',Arial,'Liberation Sans',sans-serif" font-size="9" font-weight="700" fill="#fff" text-anchor="start">Case servicing</text><rect x="1057.0" y="306.0" width="192.0" height="30.0" rx="5" ry="5" fill="#FDECEC"/><text x="1065.0" y="319.0" font-family="'Segoe UI','Helvetica Neue',Arial,'Liberation Sans',sans-serif" font-size="9" font-weight="800" fill="#B4342B" text-anchor="start">INC-2043 · High</text><text x="1065.0" y="331.0" font-family="'Segoe UI','Helvetica Neue',Arial,'Liberation Sans',sans-serif" font-size="7.6" font-weight="600" fill="#B4342B" text-anchor="start">SLA 01:07 remaining</text><rect x="1057.0" y="344.0" width="192.0" height="30.0" rx="5" ry="5" fill="#fff" stroke="#E3E8EE" stroke-width="1"/><text x="1065.0" y="356.0" font-family="'Segoe UI','Helvetica Neue',Arial,'Liberation Sans',sans-serif" font-size="6.8" font-weight="700" fill="#94A3B2" text-anchor="start">CUSTOMER</text><text x="1065.0" y="369.0" font-family="'Segoe UI','Helvetica Neue',Arial,'Liberation Sans',sans-serif" font-size="9" font-weight="700" fill="#1B2733" text-anchor="start">Ahmed Al-Kuwari</text><rect x="1057.0" y="378.0" width="192.0" height="30.0" rx="5" ry="5" fill="#fff" stroke="#E3E8EE" stroke-width="1"/><text x="1065.0" y="390.0" font-family="'Segoe UI','Helvetica Neue',Arial,'Liberation Sans',sans-serif" font-size="6.8" font-weight="700" fill="#94A3B2" text-anchor="start">SUBJECT</text><text x="1065.0" y="403.0" font-family="'Segoe UI','Helvetica Neue',Arial,'Liberation Sans',sans-serif" font-size="9" font-weight="700" fill="#1B2733" text-anchor="start">Property lapse</text><rect x="1057.0" y="412.0" width="192.0" height="30.0" rx="5" ry="5" fill="#fff" stroke="#E3E8EE" stroke-width="1"/><text x="1065.0" y="424.0" font-family="'Segoe UI','Helvetica Neue',Arial,'Liberation Sans',sans-serif" font-size="6.8" font-weight="700" fill="#94A3B2" text-anchor="start">OWNER</text><text x="1065.0" y="437.0" font-family="'Segoe UI','Helvetica Neue',Arial,'Liberation Sans',sans-serif" font-size="9" font-weight="700" fill="#1B2733" text-anchor="start">M. Haddad</text><rect x="1057.0" y="448.0" width="192.0" height="26.0" rx="5" ry="5" fill="#F6F8FA"/><text x="1065.0" y="464.0" font-family="'Segoe UI','Helvetica Neue',Arial,'Liberation Sans',sans-serif" font-size="8.4" font-weight="600" fill="#5A6B7B" text-anchor="start">Outcome ▾  (validated)</text><rect x="1057.0" y="478.0" width="192.0" height="30.0" rx="8" ry="8" fill="#0F6CBD"/><text x="1153.0" y="497.0" font-family="'Segoe UI','Helvetica Neue',Arial,'Liberation Sans',sans-serif" font-size="9" font-weight="700" fill="#fff" text-anchor="middle">Update &amp; save</text><circle cx="1259.0" cy="256" r="15" fill="#C9A24B" stroke="#fff" stroke-width="2"/><circle cx="1259.0" cy="256" r="15" fill="none" stroke="#5E0E26" stroke-width="1" opacity="0.5"/><text x="1259.0" y="261.4" font-family="'Segoe UI','Helvetica Neue',Arial,'Liberation Sans',sans-serif" font-size="14.25" font-weight="900" fill="#3a2a06" text-anchor="middle">2</text><rect x="1372.5" y="250.0" width="224.0" height="330.0" rx="22" ry="22" fill="#1B2733"/><rect x="1377.5" y="255.0" width="214.0" height="320.0" rx="18" ry="18" fill="#fff"/><rect x="1458.5" y="260.0" width="52.0" height="5.0" rx="2.5" ry="2.5" fill="#1B2733"/><rect x="1380.5" y="272.0" width="208.0" height="26.0" rx="4" ry="4" fill="#052B4E"/><rect x="1388.5" y="276.0" width="18.0" height="18.0" rx="5" ry="5" fill="#F3F7FB" stroke="#E3E8EE" stroke-width="1"/><g transform="translate(1391.02,278.52) scale(0.54)"><rect x="3" y="6.5" width="18" height="13" rx="2.2" fill="#fff"/><path d="M9 6.5 V5 Q9 3.5 10.5 3.5 H13.5 Q15 3.5 15 5 V6.5" fill="none" stroke="#fff" stroke-width="1.8"/><rect x="6" y="10" width="12" height="1.7" rx="0.8" fill="#fff"/><rect x="6" y="13.5" width="8" height="1.7" rx="0.8" fill="#fff"/></g><text x="1412.5" y="289.0" font-family="'Segoe UI','Helvetica Neue',Arial,'Liberation Sans',sans-serif" font-size="9" font-weight="700" fill="#fff" text-anchor="start">Dashboards on the go</text><rect x="1388.5" y="306.0" width="94.0" height="44.0" rx="6" ry="6" fill="#fff" stroke="#E3E8EE" stroke-width="1"/><text x="1435.5" y="330.0" font-family="'Segoe UI','Helvetica Neue',Arial,'Liberation Sans',sans-serif" font-size="15" font-weight="800" fill="#0F6CBD" text-anchor="middle">312</text><text x="1435.5" y="343.0" font-family="'Segoe UI','Helvetica Neue',Arial,'Liberation Sans',sans-serif" font-size="7.6" font-weight="600" fill="#5A6B7B" text-anchor="middle">Open</text><rect x="1486.5" y="306.0" width="94.0" height="44.0" rx="6" ry="6" fill="#fff" stroke="#E3E8EE" stroke-width="1"/><text x="1533.5" y="330.0" font-family="'Segoe UI','Helvetica Neue',Arial,'Liberation Sans',sans-serif" font-size="14" font-weight="800" fill="#0B875B" text-anchor="middle">94.6%</text><text x="1533.5" y="343.0" font-family="'Segoe UI','Helvetica Neue',Arial,'Liberation Sans',sans-serif" font-size="7.6" font-weight="600" fill="#5A6B7B" text-anchor="middle">SLA</text><rect x="1401.7" y="364.0" width="21.6" height="70.0" rx="2" ry="2" fill="#0F6CBD"/><text x="1412.5" y="446.0" font-family="'Segoe UI','Helvetica Neue',Arial,'Liberation Sans',sans-serif" font-size="8.2" font-weight="600" fill="#94A3B2" text-anchor="middle">UW</text><rect x="1437.7" y="388.8" width="21.6" height="45.2" rx="2" ry="2" fill="#0F6CBD"/><text x="1448.5" y="446.0" font-family="'Segoe UI','Helvetica Neue',Arial,'Liberation Sans',sans-serif" font-size="8.2" font-weight="600" fill="#94A3B2" text-anchor="middle">CS</text><rect x="1473.7" y="399.0" width="21.6" height="35.0" rx="2" ry="2" fill="#0F6CBD"/><text x="1484.5" y="446.0" font-family="'Segoe UI','Helvetica Neue',Arial,'Liberation Sans',sans-serif" font-size="8.2" font-weight="600" fill="#94A3B2" text-anchor="middle">Cl</text><rect x="1509.7" y="404.8" width="21.6" height="29.2" rx="2" ry="2" fill="#0F6CBD"/><text x="1520.5" y="446.0" font-family="'Segoe UI','Helvetica Neue',Arial,'Liberation Sans',sans-serif" font-size="8.2" font-weight="600" fill="#94A3B2" text-anchor="middle">Cm</text><rect x="1545.7" y="409.2" width="21.6" height="24.8" rx="2" ry="2" fill="#0F6CBD"/><text x="1556.5" y="446.0" font-family="'Segoe UI','Helvetica Neue',Arial,'Liberation Sans',sans-serif" font-size="8.2" font-weight="600" fill="#94A3B2" text-anchor="middle">Sa</text><path d="M1484.5 484 L1484.5 456.0 A28 28 0 0 1 1503.7 504.4 Z" fill="#25D366"/><path d="M1484.5 484 L1503.7 504.4 A28 28 0 0 1 1465.3 504.4 Z" fill="#0F6CBD"/><path d="M1484.5 484 L1465.3 504.4 A28 28 0 0 1 1457.9 475.3 Z" fill="#3E7CB1"/><path d="M1484.5 484 L1457.9 475.3 A28 28 0 0 1 1484.5 456.0 Z" fill="#E8A33D"/><circle cx="1484.5" cy="484" r="17.36" fill="#fff"/><text x="1484.5" y="528.0" font-family="'Segoe UI','Helvetica Neue',Arial,'Liberation Sans',sans-serif" font-size="7.6" font-weight="600" fill="#5A6B7B" text-anchor="middle">by channel</text><rect x="602.0" y="596.0" width="1102.0" height="432.0" rx="10" ry="10" fill="#fff" stroke="#E3E8EE" stroke-width="1.2"/><rect x="618.0" y="614.0" width="24.0" height="24.0" rx="5" ry="5" fill="#F3F7FB" stroke="#E3E8EE" stroke-width="1"/><g transform="translate(621.36,617.36) scale(0.72)"><path d="M3 18 A9 9 0 0 1 21 18" fill="none" stroke="#0F6CBD" stroke-width="2.4"/><line x1="12" y1="18" x2="16" y2="12" stroke="#0F6CBD" stroke-width="2.2" stroke-linecap="round"/><circle cx="12" cy="18" r="2" fill="#0F6CBD"/></g><text x="652.0" y="622.0" font-family="'Segoe UI','Helvetica Neue',Arial,'Liberation Sans',sans-serif" font-size="13.5" font-weight="800" fill="#052B4E" text-anchor="start">One responsive solution — desktop · tablet · phone</text><text x="652.0" y="641.0" font-family="'Segoe UI','Helvetica Neue',Arial,'Liberation Sans',sans-serif" font-size="9.8" font-weight="500" fill="#5A6B7B" text-anchor="start">The same configuration renders across every form factor; field teams work online with validated, auto-saving forms.</text><circle cx="612" cy="610" r="15" fill="#C9A24B" stroke="#fff" stroke-width="2"/><circle cx="612" cy="610" r="15" fill="none" stroke="#5E0E26" stroke-width="1" opacity="0.5"/><text x="612.0" y="615.4" font-family="'Segoe UI','Helvetica Neue',Arial,'Liberation Sans',sans-serif" font-size="14.25" font-weight="900" fill="#3a2a06" text-anchor="middle">4</text><rect x="622.0" y="658.0" width="168.7" height="28.0" rx="6" ry="6" fill="#E8F1FB"/><text x="706.3" y="676.0" font-family="'Segoe UI','Helvetica Neue',Arial,'Liberation Sans',sans-serif" font-size="8.4" font-weight="700" fill="#0A4C86" text-anchor="middle">Responsive web &amp; mobile</text><rect x="800.7" y="658.0" width="168.7" height="28.0" rx="6" ry="6" fill="#E8F1FB"/><text x="885.0" y="676.0" font-family="'Segoe UI','Helvetica Neue',Arial,'Liberation Sans',sans-serif" font-size="8.4" font-weight="700" fill="#0A4C86" text-anchor="middle">Field servicing access</text><rect x="979.3" y="658.0" width="168.7" height="28.0" rx="6" ry="6" fill="#E8F1FB"/><text x="1063.7" y="676.0" font-family="'Segoe UI','Helvetica Neue',Arial,'Liberation Sans',sans-serif" font-size="8.4" font-weight="700" fill="#0A4C86" text-anchor="middle">Mandatory-field validation</text><rect x="1158.0" y="658.0" width="168.7" height="28.0" rx="6" ry="6" fill="#E8F1FB"/><text x="1242.3" y="676.0" font-family="'Segoe UI','Helvetica Neue',Arial,'Liberation Sans',sans-serif" font-size="8.4" font-weight="700" fill="#0A4C86" text-anchor="middle">Dropdowns &amp; auto-save</text><rect x="1336.7" y="658.0" width="168.7" height="28.0" rx="6" ry="6" fill="#E8F1FB"/><text x="1421.0" y="676.0" font-family="'Segoe UI','Helvetica Neue',Arial,'Liberation Sans',sans-serif" font-size="8.4" font-weight="700" fill="#0A4C86" text-anchor="middle">Voice-to-text · roadmap</text><rect x="1515.3" y="658.0" width="168.7" height="28.0" rx="6" ry="6" fill="#E8F1FB"/><text x="1599.7" y="676.0" font-family="'Segoe UI','Helvetica Neue',Arial,'Liberation Sans',sans-serif" font-size="8.4" font-weight="700" fill="#0A4C86" text-anchor="middle">Geo-tagged visits · roadmap</text><rect x="622.0" y="702.0" width="202.8" height="76.0" rx="8" ry="8" fill="#fff" stroke="#E3E8EE" stroke-width="1.1"/><rect x="622.0" y="702.0" width="202.8" height="3.5" rx="2" ry="2" fill="#0F6CBD"/><text x="812.8" y="736.0" font-family="'Segoe UI','Helvetica Neue',Arial,'Liberation Sans',sans-serif" font-size="23" font-weight="800" fill="#0F6CBD" text-anchor="end">300+</text><text x="634.0" y="756.0" font-family="'Segoe UI','Helvetica Neue',Arial,'Liberation Sans',sans-serif" font-size="10" font-weight="700" fill="#1B2733" text-anchor="start">Concurrent users</text><rect x="836.8" y="702.0" width="202.8" height="76.0" rx="8" ry="8" fill="#fff" stroke="#E3E8EE" stroke-width="1.1"/><rect x="836.8" y="702.0" width="202.8" height="3.5" rx="2" ry="2" fill="#0B875B"/><text x="1027.6" y="736.0" font-family="'Segoe UI','Helvetica Neue',Arial,'Liberation Sans',sans-serif" font-size="23" font-weight="800" fill="#0B875B" text-anchor="end">≤ 3s</text><text x="848.8" y="756.0" font-family="'Segoe UI','Helvetica Neue',Arial,'Liberation Sans',sans-serif" font-size="10" font-weight="700" fill="#1B2733" text-anchor="start">Page response</text><rect x="1051.6" y="702.0" width="202.8" height="76.0" rx="8" ry="8" fill="#fff" stroke="#E3E8EE" stroke-width="1.1"/><rect x="1051.6" y="702.0" width="202.8" height="3.5" rx="2" ry="2" fill="#3E7CB1"/><text x="1242.4" y="736.0" font-family="'Segoe UI','Helvetica Neue',Arial,'Liberation Sans',sans-serif" font-size="23" font-weight="800" fill="#3E7CB1" text-anchor="end">99.5%</text><text x="1063.6" y="756.0" font-family="'Segoe UI','Helvetica Neue',Arial,'Liberation Sans',sans-serif" font-size="10" font-weight="700" fill="#1B2733" text-anchor="start">Availability</text><rect x="1266.4" y="702.0" width="202.8" height="76.0" rx="8" ry="8" fill="#fff" stroke="#E3E8EE" stroke-width="1.1"/><rect x="1266.4" y="702.0" width="202.8" height="3.5" rx="2" ry="2" fill="#E8A33D"/><text x="1457.2" y="736.0" font-family="'Segoe UI','Helvetica Neue',Arial,'Liberation Sans',sans-serif" font-size="23" font-weight="800" fill="#E8A33D" text-anchor="end">Auto-save</text><text x="1278.4" y="756.0" font-family="'Segoe UI','Helvetica Neue',Arial,'Liberation Sans',sans-serif" font-size="10" font-weight="700" fill="#1B2733" text-anchor="start">No lost work</text><rect x="1481.2" y="702.0" width="202.8" height="76.0" rx="8" ry="8" fill="#fff" stroke="#E3E8EE" stroke-width="1.1"/><rect x="1481.2" y="702.0" width="202.8" height="3.5" rx="2" ry="2" fill="#7A5CC0"/><text x="1672.0" y="736.0" font-family="'Segoe UI','Helvetica Neue',Arial,'Liberation Sans',sans-serif" font-size="23" font-weight="800" fill="#7A5CC0" text-anchor="end">Offline-ready</text><text x="1493.2" y="756.0" font-family="'Segoe UI','Helvetica Neue',Arial,'Liberation Sans',sans-serif" font-size="10" font-weight="700" fill="#1B2733" text-anchor="start">Field resilience</text><text x="622.0" y="1014.0" font-family="'Segoe UI','Helvetica Neue',Arial,'Liberation Sans',sans-serif" font-size="9.4" font-weight="500" fill="#5A6B7B" text-anchor="start">Non-functional targets verified on web and mobile — responsive Unified Interface / Lightning across desktop, tablet and phone.</text><rect x="0" y="1054" width="1760" height="46" fill="#16283A"/><rect x="0" y="1054" width="1760" height="2.5" fill="#C9A24B"/><text x="40.0" y="1082.0" font-family="'Segoe UI','Helvetica Neue',Arial,'Liberation Sans',sans-serif" font-size="12" font-weight="600" fill="#CBD6E1" text-anchor="start">QICIRCO Enterprise CRM Implementation  ·  Technical Proposal</text><text x="880.0" y="1082.0" font-family="'Segoe UI','Helvetica Neue',Arial,'Liberation Sans',sans-serif" font-size="11.5" font-weight="700" fill="#C9A24B" text-anchor="middle">Solution option: Microsoft Dynamics 365</text><text x="1720.0" y="1082.0" font-family="'Segoe UI','Helvetica Neue',Arial,'Liberation Sans',sans-serif" font-size="11.5" font-weight="500" fill="#CBD6E1" text-anchor="end">Trion Technology  ×  Volge   ·   NFR-Usab · Mobile &amp; Responsive Access</text></svg>