<svg xmlns="http://www.w3.org/2000/svg" width="1760" height="1100" viewBox="0 0 1760 1100" font-family="'Segoe UI','Helvetica Neue',Arial,'Liberation Sans',sans-serif"><defs>
  <linearGradient id="qicHead" x1="0" y1="0" x2="1" y2="0">
    <stop offset="0" stop-color="#16283A"/>
    <stop offset="0.62" stop-color="#5E0E26"/>
    <stop offset="1" stop-color="#8A1538"/>
  </linearGradient>
  <linearGradient id="pfBadge" x1="0" y1="0" x2="0" y2="1">
    <stop offset="0" stop-color="#0F6CBD"/>
    <stop offset="1" stop-color="#0A4C86"/>
  </linearGradient>
  <linearGradient id="pfBand" x1="0" y1="0" x2="0" y2="1">
    <stop offset="0" stop-color="#0F6CBD"/>
    <stop offset="1" stop-color="#052B4E"/>
  </linearGradient>
  <linearGradient id="aiGrad" x1="0" y1="0" x2="1" y2="1">
    <stop offset="0" stop-color="#8E5BE8"/>
    <stop offset="1" stop-color="#0F6CBD"/>
  </linearGradient>
  <filter id="ds" x="-8%" y="-8%" width="116%" height="120%">
    <feDropShadow dx="0" dy="2.5" stdDeviation="4.5" flood-color="#1b283a" flood-opacity="0.16"/>
  </filter>
  <filter id="dsSoft" x="-20%" y="-20%" width="140%" height="150%">
    <feDropShadow dx="0" dy="1.5" stdDeviation="2.5" flood-color="#1b283a" flood-opacity="0.13"/>
  </filter>
  <marker id="arr" markerWidth="11" markerHeight="11" refX="8.5" refY="5.5" orient="auto">
    <path d="M1,1 L9.5,5.5 L1,10" fill="none" stroke="#5A6B7B" stroke-width="1.8" stroke-linecap="round" stroke-linejoin="round"/>
  </marker>
  <marker id="arrP" markerWidth="11" markerHeight="11" refX="8.5" refY="5.5" orient="auto">
    <path d="M1,1 L9.5,5.5 L1,10" fill="none" stroke="#0A4C86" stroke-width="1.9" stroke-linecap="round" stroke-linejoin="round"/>
  </marker>
  <marker id="arrG" markerWidth="11" markerHeight="11" refX="8.5" refY="5.5" orient="auto">
    <path d="M1,1 L9.5,5.5 L1,10" fill="none" stroke="#C9A24B" stroke-width="2" stroke-linecap="round" stroke-linejoin="round"/>
  </marker>
  <marker id="dot" markerWidth="8" markerHeight="8" refX="4" refY="4">
    <circle cx="4" cy="4" r="3" fill="#0F6CBD"/>
  </marker>
</defs><rect width="1760" height="1100" fill="#EEF2F6"/><rect x="0" y="0" width="1760" height="104" fill="url(#qicHead)"/><rect x="0" y="100" width="1760" height="4" fill="#C9A24B"/><circle cx="70" cy="52.0" r="26" fill="#ffffff" opacity="0.10"/><circle cx="70" cy="52.0" r="22" fill="none" stroke="#C9A24B" stroke-width="2"/><path d="M70 38.0 L83 46.0 L83 59.0 Q83 65.0 70 68.0 Q57 65.0 57 59.0 L57 46.0 Z" fill="#ffffff"/><path d="M70 44.0 L77 48.5 L77 56.0 Q77 59.5 70 61.5 Q63 59.5 63 56.0 L63 48.5 Z" fill="#8A1538"/><text x="114.0" y="40.0" font-family="'Segoe UI','Helvetica Neue',Arial,'Liberation Sans',sans-serif" font-size="27" font-weight="800" fill="#ffffff" text-anchor="start" letter-spacing="2">QICIRCO</text><text x="114.0" y="63.0" font-family="'Segoe UI','Helvetica Neue',Arial,'Liberation Sans',sans-serif" font-size="13.5" font-weight="500" fill="#EBD9C2" text-anchor="start">Qatar General Insurance &amp; Reinsurance Company</text><text x="114.0" y="84.0" font-family="'Segoe UI','Helvetica Neue',Arial,'Liberation Sans',sans-serif" font-size="11.5" font-weight="700" fill="#C9A24B" text-anchor="start" letter-spacing="2.5">REQUIREMENT → REALIZED IN PRODUCT</text><text x="940.0" y="52.0" font-family="'Segoe UI','Helvetica Neue',Arial,'Liberation Sans',sans-serif" font-size="22" font-weight="700" fill="#ffffff" text-anchor="middle">Structured Interaction Logging &amp; Audit Trail</text><text x="940.0" y="76.0" font-family="'Segoe UI','Helvetica Neue',Arial,'Liberation Sans',sans-serif" font-size="13" font-weight="400" fill="#D9C3AD" text-anchor="middle" font-style="italic">How the Microsoft Dynamics 365 solution addresses this QICIRCO requirement</text><rect x="1452.0" y="26.0" width="268.0" height="52.0" rx="10" ry="10" fill="#ffffff" opacity="0.97"/><rect x="1464.2" y="38.2" width="12.972000000000001" height="12.972000000000001" fill="#F25022"/><rect x="1478.828" y="38.2" width="12.972000000000001" height="12.972000000000001" fill="#7FBA00"/><rect x="1464.2" y="52.828" width="12.972000000000001" height="12.972000000000001" fill="#00A4EF"/><rect x="1478.828" y="52.828" width="12.972000000000001" height="12.972000000000001" fill="#FFB900"/><text x="1502.0" y="49.0" font-family="'Segoe UI','Helvetica Neue',Arial,'Liberation Sans',sans-serif" font-size="15.5" font-weight="800" fill="#052B4E" text-anchor="start">Microsoft Dynamics 365</text><text x="1502.0" y="66.0" font-family="'Segoe UI','Helvetica Neue',Arial,'Liberation Sans',sans-serif" font-size="9.6" font-weight="600" fill="#0A4C86" text-anchor="start">Customer Engagement · Power Platform · Azure</text><rect x="40.0" y="124.0" width="372.0" height="916.0" rx="12" ry="12" fill="#fff" stroke="#D5DEE7" stroke-width="1.4"/><g filter="url(#dsSoft)"><rect x="40.0" y="124.0" width="372.0" height="916.0" rx="12" ry="12" fill="none"/></g><rect x="40.0" y="124.0" width="372.0" height="6.0" rx="3" ry="3" fill="#8A1538"/><text x="58.0" y="154.0" font-family="'Segoe UI','Helvetica Neue',Arial,'Liberation Sans',sans-serif" font-size="11" font-weight="800" fill="#8A1538" text-anchor="start" letter-spacing="2">REQUIREMENT</text><rect x="340.0" y="140.0" width="54.0" height="20.0" rx="6" ry="6" fill="#16283A"/><text x="367.0" y="154.0" font-family="'Segoe UI','Helvetica Neue',Arial,'Liberation Sans',sans-serif" font-size="11" font-weight="800" fill="#fff" text-anchor="middle">FR-2</text><text x="58.0" y="178.0" font-family="'Segoe UI','Helvetica Neue',Arial,'Liberation Sans',sans-serif" font-size="15.5" font-weight="800" fill="#052B4E" text-anchor="start"><tspan x="58.0" dy="0">Interaction Logging &amp; Audit</tspan></text><rect x="58.0" y="203.0" width="62.8" height="17.0" rx="8" ry="8" fill="#F6F8FB" stroke="#D5DEE7" stroke-width="1"/><text x="89.4" y="215.0" font-family="'Segoe UI','Helvetica Neue',Arial,'Liberation Sans',sans-serif" font-size="8.8" font-weight="700" fill="#22384E" text-anchor="middle">RFP §5.1</text><rect x="126.8" y="203.0" width="107.6" height="17.0" rx="8" ry="8" fill="#F6F8FB" stroke="#D5DEE7" stroke-width="1"/><text x="180.6" y="215.0" font-family="'Segoe UI','Helvetica Neue',Arial,'Liberation Sans',sans-serif" font-size="8.8" font-weight="700" fill="#22384E" text-anchor="middle">BRD §7.2 / §11.7</text><rect x="240.4" y="203.0" width="90.8" height="17.0" rx="8" ry="8" fill="#F6F8FB" stroke="#D5DEE7" stroke-width="1"/><text x="285.8" y="215.0" font-family="'Segoe UI','Helvetica Neue',Arial,'Liberation Sans',sans-serif" font-size="8.8" font-weight="700" fill="#22384E" text-anchor="middle">Proposal FR-2</text><circle cx="61" cy="230" r="2.4" fill="#0F6CBD"/><text x="72.0" y="233.0" font-family="'Segoe UI','Helvetica Neue',Arial,'Liberation Sans',sans-serif" font-size="10.6" font-weight="500" fill="#1B2733" text-anchor="start"><tspan x="72.0" dy="0">Structured logging with date/time,</tspan><tspan x="72.0" dy="14">channel, category, reason, outcome,</tspan><tspan x="72.0" dy="14">follow-up, notes and attachments.</tspan></text><circle cx="61" cy="280" r="2.4" fill="#0F6CBD"/><text x="72.0" y="283.0" font-family="'Segoe UI','Helvetica Neue',Arial,'Liberation Sans',sans-serif" font-size="10.6" font-weight="500" fill="#1B2733" text-anchor="start"><tspan x="72.0" dy="0">Mandatory-field validation, timestamps and</tspan><tspan x="72.0" dy="14">user stamps on every interaction.</tspan></text><circle cx="61" cy="316" r="2.4" fill="#0F6CBD"/><text x="72.0" y="319.0" font-family="'Segoe UI','Helvetica Neue',Arial,'Liberation Sans',sans-serif" font-size="10.6" font-weight="500" fill="#1B2733" text-anchor="start"><tspan x="72.0" dy="0">Complete, immutable audit trail for</tspan><tspan x="72.0" dy="14">interactions, workflow and access.</tspan></text><line x1="58.0" y1="359.0" x2="394.0" y2="359.0" stroke="#D5DEE7" stroke-width="1" stroke-linecap="round"/><rect x="58.0" y="366.0" width="20.0" height="20.0" rx="5" ry="5" fill="#F3F7FB" stroke="#E3E8EE" stroke-width="1"/><g transform="translate(60.8,368.8) scale(0.6)"><path d="M3 18 A9 9 0 0 1 21 18" fill="none" stroke="#0F6CBD" stroke-width="2.4"/><line x1="12" y1="18" x2="16" y2="12" stroke="#0F6CBD" stroke-width="2.2" stroke-linecap="round"/><circle cx="12" cy="18" r="2" fill="#0F6CBD"/></g><text x="86.0" y="381.0" font-family="'Segoe UI','Helvetica Neue',Arial,'Liberation Sans',sans-serif" font-size="10.5" font-weight="800" fill="#052B4E" text-anchor="start" letter-spacing="0.5">HOW MICROSOFT DYNAMICS 365 DELIVERS IT</text><circle cx="68" cy="401" r="11" fill="#C9A24B" stroke="#fff" stroke-width="2"/><circle cx="68" cy="401" r="11" fill="none" stroke="#5E0E26" stroke-width="1" opacity="0.5"/><text x="68.0" y="405.0" font-family="'Segoe UI','Helvetica Neue',Arial,'Liberation Sans',sans-serif" font-size="10.45" font-weight="900" fill="#3a2a06" text-anchor="middle">1</text><text x="86.0" y="397.0" font-family="'Segoe UI','Helvetica Neue',Arial,'Liberation Sans',sans-serif" font-size="10.4" font-weight="500" fill="#1B2733" text-anchor="start"><tspan x="86.0" dy="0">Guided form enforces mandatory fields</tspan><tspan x="86.0" dy="13.5">before an interaction can be saved.</tspan></text><circle cx="68" cy="435.0" r="11" fill="#C9A24B" stroke="#fff" stroke-width="2"/><circle cx="68" cy="435.0" r="11" fill="none" stroke="#5E0E26" stroke-width="1" opacity="0.5"/><text x="68.0" y="439.0" font-family="'Segoe UI','Helvetica Neue',Arial,'Liberation Sans',sans-serif" font-size="10.45" font-weight="900" fill="#3a2a06" text-anchor="middle">2</text><text x="86.0" y="431.0" font-family="'Segoe UI','Helvetica Neue',Arial,'Liberation Sans',sans-serif" font-size="10.4" font-weight="500" fill="#1B2733" text-anchor="start"><tspan x="86.0" dy="0">Date, time and handling user are stamped</tspan><tspan x="86.0" dy="13.5">automatically — the agent records only</tspan><tspan x="86.0" dy="13.5">what can&#x27;t be inferred.</tspan></text><circle cx="68" cy="482.5" r="11" fill="#C9A24B" stroke="#fff" stroke-width="2"/><circle cx="68" cy="482.5" r="11" fill="none" stroke="#5E0E26" stroke-width="1" opacity="0.5"/><text x="68.0" y="486.5" font-family="'Segoe UI','Helvetica Neue',Arial,'Liberation Sans',sans-serif" font-size="10.45" font-weight="900" fill="#3a2a06" text-anchor="middle">3</text><text x="86.0" y="478.5" font-family="'Segoe UI','Helvetica Neue',Arial,'Liberation Sans',sans-serif" font-size="10.4" font-weight="500" fill="#1B2733" text-anchor="start"><tspan x="86.0" dy="0">Notes and attachments are captured on</tspan><tspan x="86.0" dy="13.5">the same record.</tspan></text><circle cx="68" cy="516.5" r="11" fill="#C9A24B" stroke="#fff" stroke-width="2"/><circle cx="68" cy="516.5" r="11" fill="none" stroke="#5E0E26" stroke-width="1" opacity="0.5"/><text x="68.0" y="520.5" font-family="'Segoe UI','Helvetica Neue',Arial,'Liberation Sans',sans-serif" font-size="10.45" font-weight="900" fill="#3a2a06" text-anchor="middle">4</text><text x="86.0" y="512.5" font-family="'Segoe UI','Helvetica Neue',Arial,'Liberation Sans',sans-serif" font-size="10.4" font-weight="500" fill="#1B2733" text-anchor="start"><tspan x="86.0" dy="0">Every create, edit and status change is</tspan><tspan x="86.0" dy="13.5">written to an immutable audit trail.</tspan></text><rect x="428.0" y="124.0" width="1292.0" height="916.0" rx="10" ry="10" fill="#fff" stroke="#C7D2DE" stroke-width="1.4"/><g filter="url(#ds)"><rect x="428.0" y="124.0" width="1292.0" height="916.0" rx="10" ry="10" fill="none"/></g><rect x="428.0" y="124.0" width="1292.0" height="26.0" rx="10" ry="10" fill="#E7ECF2"/><rect x="428.0" y="140.0" width="1292.0" height="10.0" rx="12" ry="12" fill="#E7ECF2"/><circle cx="444" cy="137.0" r="4.2" fill="#F25F5C"/><circle cx="459" cy="137.0" r="4.2" fill="#FFB84D"/><circle cx="474" cy="137.0" r="4.2" fill="#2ECC71"/><rect x="498.0" y="130.0" width="1152.0" height="14.0" rx="7" ry="7" fill="#FFFFFF" stroke="#D4DCE5" stroke-width="1"/><circle cx="512" cy="137.0" r="3.4" fill="#1E9E5A"/><text x="522.0" y="140.4" font-family="'Segoe UI','Helvetica Neue',Arial,'Liberation Sans',sans-serif" font-size="9.4" font-weight="500" fill="#5A6B7B" text-anchor="start">org.crm.dynamics.com</text><rect x="428.0" y="150.0" width="1292.0" height="40.0" rx="12" ry="12" fill="#0B1F3A"/><rect x="444.0" y="165.0" width="2.8" height="2.8" rx="0.6" fill="#ffffff"/><rect x="449.0" y="165.0" width="2.8" height="2.8" rx="0.6" fill="#ffffff"/><rect x="454.0" y="165.0" width="2.8" height="2.8" rx="0.6" fill="#ffffff"/><rect x="444.0" y="170.0" width="2.8" height="2.8" rx="0.6" fill="#ffffff"/><rect x="449.0" y="170.0" width="2.8" height="2.8" rx="0.6" fill="#ffffff"/><rect x="454.0" y="170.0" width="2.8" height="2.8" rx="0.6" fill="#ffffff"/><rect x="444.0" y="175.0" width="2.8" height="2.8" rx="0.6" fill="#ffffff"/><rect x="449.0" y="175.0" width="2.8" height="2.8" rx="0.6" fill="#ffffff"/><rect x="454.0" y="175.0" width="2.8" height="2.8" rx="0.6" fill="#ffffff"/><text x="472.0" y="174.0" font-family="'Segoe UI','Helvetica Neue',Arial,'Liberation Sans',sans-serif" font-size="13" font-weight="700" fill="#fff" text-anchor="start">Dynamics 365</text><text x="578.0" y="174.0" font-family="'Segoe UI','Helvetica Neue',Arial,'Liberation Sans',sans-serif" font-size="11" font-weight="500" fill="#AEC3DA" text-anchor="start">Interactions  ›  New interaction</text><text x="1700.0" y="174.0" font-family="'Segoe UI','Helvetica Neue',Arial,'Liberation Sans',sans-serif" font-size="12" font-weight="400" fill="#CBD8E6" text-anchor="end">?</text><text x="1674.0" y="174.0" font-family="'Segoe UI','Helvetica Neue',Arial,'Liberation Sans',sans-serif" font-size="12" font-weight="400" fill="#CBD8E6" text-anchor="end">⚙</text><text x="1648.0" y="174.0" font-family="'Segoe UI','Helvetica Neue',Arial,'Liberation Sans',sans-serif" font-size="12" font-weight="400" fill="#CBD8E6" text-anchor="end">▣</text><text x="1622.0" y="174.0" font-family="'Segoe UI','Helvetica Neue',Arial,'Liberation Sans',sans-serif" font-size="12" font-weight="400" fill="#CBD8E6" text-anchor="end">⌕</text><circle cx="1698" cy="170.0" r="11" fill="#C9A24B"/><text x="1698.0" y="173.7" font-family="'Segoe UI','Helvetica Neue',Arial,'Liberation Sans',sans-serif" font-size="9.02" font-weight="700" fill="#fff" text-anchor="middle">SA</text><rect x="428.0" y="190.0" width="1292.0" height="34.0" rx="12" ry="12" fill="#FBFCFD" stroke="#E3E8EE" stroke-width="1"/><text x="444.0" y="211.0" font-family="'Segoe UI','Helvetica Neue',Arial,'Liberation Sans',sans-serif" font-size="11" font-weight="700" fill="#0F6CBD" text-anchor="start">+</text><text x="458.0" y="211.0" font-family="'Segoe UI','Helvetica Neue',Arial,'Liberation Sans',sans-serif" font-size="10.5" font-weight="600" fill="#1B2733" text-anchor="start">New</text><text x="501.2" y="211.0" font-family="'Segoe UI','Helvetica Neue',Arial,'Liberation Sans',sans-serif" font-size="11" font-weight="700" fill="#0F6CBD" text-anchor="start">✔</text><text x="515.2" y="211.0" font-family="'Segoe UI','Helvetica Neue',Arial,'Liberation Sans',sans-serif" font-size="10.5" font-weight="600" fill="#1B2733" text-anchor="start">Save</text><text x="564.8" y="211.0" font-family="'Segoe UI','Helvetica Neue',Arial,'Liberation Sans',sans-serif" font-size="11" font-weight="700" fill="#0F6CBD" text-anchor="start">↻</text><text x="578.8" y="211.0" font-family="'Segoe UI','Helvetica Neue',Arial,'Liberation Sans',sans-serif" font-size="10.5" font-weight="600" fill="#1B2733" text-anchor="start">Refresh</text><text x="647.6" y="211.0" font-family="'Segoe UI','Helvetica Neue',Arial,'Liberation Sans',sans-serif" font-size="11" font-weight="700" fill="#0F6CBD" text-anchor="start">⚑</text><text x="661.6" y="211.0" font-family="'Segoe UI','Helvetica Neue',Arial,'Liberation Sans',sans-serif" font-size="10.5" font-weight="600" fill="#1B2733" text-anchor="start">Flow</text><text x="711.2" y="211.0" font-family="'Segoe UI','Helvetica Neue',Arial,'Liberation Sans',sans-serif" font-size="11" font-weight="700" fill="#0F6CBD" text-anchor="start">…</text><text x="725.2" y="211.0" font-family="'Segoe UI','Helvetica Neue',Arial,'Liberation Sans',sans-serif" font-size="10.5" font-weight="600" fill="#1B2733" text-anchor="start">More</text><rect x="428.0" y="224.0" width="150.0" height="816.0" rx="12" ry="12" fill="#FAFBFC" stroke="#E3E8EE" stroke-width="1"/><rect x="440.0" y="238.0" width="18.0" height="18.0" rx="5" ry="5" fill="#F3F7FB" stroke="#E3E8EE" stroke-width="1"/><g transform="translate(442.52,240.52) scale(0.54)"><circle cx="10" cy="10" r="6.5" fill="none" stroke="#0F6CBD" stroke-width="2.4"/><line x1="14.8" y1="14.8" x2="21" y2="21" stroke="#0F6CBD" stroke-width="2.6" stroke-linecap="round"/></g><text x="466.0" y="251.0" font-family="'Segoe UI','Helvetica Neue',Arial,'Liberation Sans',sans-serif" font-size="10.4" font-weight="600" fill="#5A6B7B" text-anchor="start">Search</text><rect x="428.0" y="266.0" width="150.0" height="30.0" rx="12" ry="12" fill="#EAF2FB"/><rect x="428.0" y="266.0" width="3.0" height="30.0" rx="12" ry="12" fill="#0F6CBD"/><rect x="440.0" y="270.0" width="18.0" height="18.0" rx="5" ry="5" fill="#F3F7FB" stroke="#E3E8EE" stroke-width="1"/><g transform="translate(442.52,272.52) scale(0.54)"><circle cx="12" cy="12" r="10.5" fill="none" stroke="#0F6CBD" stroke-width="1.8" stroke-dasharray="3 2.6"/><circle cx="12" cy="10" r="3.4" fill="#0F6CBD"/><path d="M5.5 19 Q5.5 13.5 12 13.5 Q18.5 13.5 18.5 19 Z" fill="#0F6CBD"/></g><text x="466.0" y="283.0" font-family="'Segoe UI','Helvetica Neue',Arial,'Liberation Sans',sans-serif" font-size="10.4" font-weight="700" fill="#1B2733" text-anchor="start">Customers</text><rect x="440.0" y="302.0" width="18.0" height="18.0" rx="5" ry="5" fill="#F3F7FB" stroke="#E3E8EE" stroke-width="1"/><g transform="translate(442.52,304.52) scale(0.54)"><rect x="3" y="6.5" width="18" height="13" rx="2.2" fill="#0F6CBD"/><path d="M9 6.5 V5 Q9 3.5 10.5 3.5 H13.5 Q15 3.5 15 5 V6.5" fill="none" stroke="#0F6CBD" stroke-width="1.8"/><rect x="6" y="10" width="12" height="1.7" rx="0.8" fill="#fff"/><rect x="6" y="13.5" width="8" height="1.7" rx="0.8" fill="#fff"/></g><text x="466.0" y="315.0" font-family="'Segoe UI','Helvetica Neue',Arial,'Liberation Sans',sans-serif" font-size="10.4" font-weight="600" fill="#5A6B7B" text-anchor="start">Cases</text><rect x="440.0" y="334.0" width="18.0" height="18.0" rx="5" ry="5" fill="#F3F7FB" stroke="#E3E8EE" stroke-width="1"/><g transform="translate(442.52,336.52) scale(0.54)"><circle cx="12" cy="12" r="10" fill="#0F6CBD"/><path d="M12 6 V12 L16 14" fill="none" stroke="#fff" stroke-width="2" stroke-linecap="round"/></g><text x="466.0" y="347.0" font-family="'Segoe UI','Helvetica Neue',Arial,'Liberation Sans',sans-serif" font-size="10.4" font-weight="600" fill="#5A6B7B" text-anchor="start">SLA / Queues</text><rect x="440.0" y="366.0" width="18.0" height="18.0" rx="5" ry="5" fill="#F3F7FB" stroke="#E3E8EE" stroke-width="1"/><g transform="translate(442.52,368.52) scale(0.54)"><circle cx="8" cy="8" r="3.2" fill="#0F6CBD"/><circle cx="16.5" cy="8.5" r="2.7" fill="#0F6CBD" opacity="0.75"/><path d="M2.5 20 Q2.5 12.5 8 12.5 Q13.5 12.5 13.5 20 Z" fill="#0F6CBD"/><path d="M13.5 20 Q13.5 13.5 16.5 13.5 Q21.5 13.5 21.5 20 Z" fill="#0F6CBD" opacity="0.75"/></g><text x="466.0" y="379.0" font-family="'Segoe UI','Helvetica Neue',Arial,'Liberation Sans',sans-serif" font-size="10.4" font-weight="600" fill="#5A6B7B" text-anchor="start">Accounts</text><rect x="440.0" y="398.0" width="18.0" height="18.0" rx="5" ry="5" fill="#F3F7FB" stroke="#E3E8EE" stroke-width="1"/><g transform="translate(442.52,400.52) scale(0.54)"><rect x="3" y="12" width="4" height="9" fill="#0F6CBD"/><rect x="10" y="7" width="4" height="14" fill="#0F6CBD"/><rect x="17" y="3" width="4" height="18" fill="#0F6CBD"/></g><text x="466.0" y="411.0" font-family="'Segoe UI','Helvetica Neue',Arial,'Liberation Sans',sans-serif" font-size="10.4" font-weight="600" fill="#5A6B7B" text-anchor="start">Dashboards</text><rect x="440.0" y="430.0" width="18.0" height="18.0" rx="5" ry="5" fill="#F3F7FB" stroke="#E3E8EE" stroke-width="1"/><g transform="translate(442.52,432.52) scale(0.54)"><circle cx="5" cy="6" r="3" fill="#0F6CBD"/><circle cx="19" cy="6" r="3" fill="#0F6CBD"/><circle cx="12" cy="18" r="3" fill="#0F6CBD"/><path d="M5 9 V11 Q5 15 12 15 M19 9 V11 Q19 15 12 15" fill="none" stroke="#0F6CBD" stroke-width="1.8"/></g><text x="466.0" y="443.0" font-family="'Segoe UI','Helvetica Neue',Arial,'Liberation Sans',sans-serif" font-size="10.4" font-weight="600" fill="#5A6B7B" text-anchor="start">Workflows</text><rect x="578.0" y="224.0" width="1142.0" height="816.0" rx="12" ry="12" fill="#F1F3F7"/><rect x="594.0" y="238.0" width="666.0" height="788.0" rx="9" ry="9" fill="#FFFFFF" stroke="#E3E8EE" stroke-width="1.2"/><g filter="url(#dsSoft)"><rect x="594.0" y="238.0" width="666.0" height="788.0" rx="9" ry="9" fill="none"/></g><rect x="606.0" y="250.0" width="22.0" height="22.0" rx="5" ry="5" fill="#F3F7FB" stroke="#E3E8EE" stroke-width="1"/><g transform="translate(609.08,253.08) scale(0.6599999999999999)"><rect x="3" y="6.5" width="18" height="13" rx="2.2" fill="#0F6CBD"/><path d="M9 6.5 V5 Q9 3.5 10.5 3.5 H13.5 Q15 3.5 15 5 V6.5" fill="none" stroke="#0F6CBD" stroke-width="1.8"/><rect x="6" y="10" width="12" height="1.7" rx="0.8" fill="#fff"/><rect x="6" y="13.5" width="8" height="1.7" rx="0.8" fill="#fff"/></g><text x="636.0" y="265.0" font-family="'Segoe UI','Helvetica Neue',Arial,'Liberation Sans',sans-serif" font-size="12.5" font-weight="800" fill="#1B2733" text-anchor="start">Log interaction</text><line x1="606.0" y1="278.0" x2="1248.0" y2="278.0" stroke="#E3E8EE" stroke-width="1" stroke-linecap="round"/><rect x="1164.0" y="250.0" width="84.0" height="18.0" rx="9" ry="9" fill="#FBF1DA"/><text x="1206.0" y="262.1" font-family="'Segoe UI','Helvetica Neue',Arial,'Liberation Sans',sans-serif" font-size="9" font-weight="600" fill="#8A6D1E" text-anchor="middle">Unsaved</text><rect x="610.0" y="292.0" width="311.0" height="44.0" rx="6" ry="6" fill="#F6F8FA" stroke="#E3E8EE" stroke-width="1"/><text x="622.0" y="309.0" font-family="'Segoe UI','Helvetica Neue',Arial,'Liberation Sans',sans-serif" font-size="8.6" font-weight="700" fill="#94A3B2" text-anchor="start" letter-spacing="0.5">CHANNEL *</text><text x="622.0" y="326.0" font-family="'Segoe UI','Helvetica Neue',Arial,'Liberation Sans',sans-serif" font-size="12" font-weight="600" fill="#052B4E" text-anchor="start">WhatsApp (WABA)</text><rect x="933.0" y="292.0" width="311.0" height="44.0" rx="6" ry="6" fill="#F6F8FA" stroke="#E3E8EE" stroke-width="1"/><text x="945.0" y="309.0" font-family="'Segoe UI','Helvetica Neue',Arial,'Liberation Sans',sans-serif" font-size="8.6" font-weight="700" fill="#94A3B2" text-anchor="start" letter-spacing="0.5">DIRECTION *</text><text x="945.0" y="326.0" font-family="'Segoe UI','Helvetica Neue',Arial,'Liberation Sans',sans-serif" font-size="12" font-weight="600" fill="#052B4E" text-anchor="start">Inbound</text><rect x="610.0" y="344.0" width="311.0" height="44.0" rx="6" ry="6" fill="#F6F8FA" stroke="#E3E8EE" stroke-width="1"/><text x="622.0" y="361.0" font-family="'Segoe UI','Helvetica Neue',Arial,'Liberation Sans',sans-serif" font-size="8.6" font-weight="700" fill="#94A3B2" text-anchor="start" letter-spacing="0.5">CATEGORY *</text><text x="622.0" y="378.0" font-family="'Segoe UI','Helvetica Neue',Arial,'Liberation Sans',sans-serif" font-size="12" font-weight="600" fill="#052B4E" text-anchor="start">Policy servicing</text><rect x="933.0" y="344.0" width="311.0" height="44.0" rx="6" ry="6" fill="#F6F8FA" stroke="#E3E8EE" stroke-width="1"/><text x="945.0" y="361.0" font-family="'Segoe UI','Helvetica Neue',Arial,'Liberation Sans',sans-serif" font-size="8.6" font-weight="700" fill="#94A3B2" text-anchor="start" letter-spacing="0.5">REASON *</text><text x="945.0" y="378.0" font-family="'Segoe UI','Helvetica Neue',Arial,'Liberation Sans',sans-serif" font-size="12" font-weight="600" fill="#052B4E" text-anchor="start">Renewal enquiry</text><rect x="610.0" y="396.0" width="311.0" height="44.0" rx="6" ry="6" fill="#F6F8FA" stroke="#E3E8EE" stroke-width="1"/><text x="622.0" y="413.0" font-family="'Segoe UI','Helvetica Neue',Arial,'Liberation Sans',sans-serif" font-size="8.6" font-weight="700" fill="#94A3B2" text-anchor="start" letter-spacing="0.5">RELATED CUSTOMER *</text><text x="622.0" y="430.0" font-family="'Segoe UI','Helvetica Neue',Arial,'Liberation Sans',sans-serif" font-size="12" font-weight="600" fill="#052B4E" text-anchor="start">Ahmed Al-Kuwari</text><rect x="933.0" y="396.0" width="311.0" height="44.0" rx="6" ry="6" fill="#F6F8FA" stroke="#E3E8EE" stroke-width="1"/><text x="945.0" y="413.0" font-family="'Segoe UI','Helvetica Neue',Arial,'Liberation Sans',sans-serif" font-size="8.6" font-weight="700" fill="#94A3B2" text-anchor="start" letter-spacing="0.5">RELATED POLICY</text><text x="945.0" y="430.0" font-family="'Segoe UI','Helvetica Neue',Arial,'Liberation Sans',sans-serif" font-size="12" font-weight="600" fill="#1B2733" text-anchor="start">P-MOT-2291</text><rect x="610.0" y="448.0" width="311.0" height="44.0" rx="6" ry="6" fill="#F6F8FA" stroke="#E3E8EE" stroke-width="1"/><text x="622.0" y="465.0" font-family="'Segoe UI','Helvetica Neue',Arial,'Liberation Sans',sans-serif" font-size="8.6" font-weight="700" fill="#94A3B2" text-anchor="start" letter-spacing="0.5">ASSIGNED USER</text><text x="622.0" y="482.0" font-family="'Segoe UI','Helvetica Neue',Arial,'Liberation Sans',sans-serif" font-size="12" font-weight="600" fill="#1B2733" text-anchor="start">S. Kamal (auto)</text><rect x="933.0" y="448.0" width="311.0" height="44.0" rx="6" ry="6" fill="#F6F8FA" stroke="#E3E8EE" stroke-width="1"/><text x="945.0" y="465.0" font-family="'Segoe UI','Helvetica Neue',Arial,'Liberation Sans',sans-serif" font-size="8.6" font-weight="700" fill="#94A3B2" text-anchor="start" letter-spacing="0.5">OUTCOME *</text><text x="945.0" y="482.0" font-family="'Segoe UI','Helvetica Neue',Arial,'Liberation Sans',sans-serif" font-size="12" font-weight="600" fill="#052B4E" text-anchor="start">Resolved – FCR</text><rect x="610.0" y="504.0" width="634.0" height="74.0" rx="6" ry="6" fill="#F6F8FA" stroke="#E3E8EE" stroke-width="1"/><text x="622.0" y="521.0" font-family="'Segoe UI','Helvetica Neue',Arial,'Liberation Sans',sans-serif" font-size="8.6" font-weight="700" fill="#94A3B2" text-anchor="start">NOTES</text><text x="622.0" y="540.0" font-family="'Segoe UI','Helvetica Neue',Arial,'Liberation Sans',sans-serif" font-size="10.4" font-weight="500" fill="#1B2733" text-anchor="start">Customer requested motor renewal quote; payment link</text><text x="622.0" y="555.0" font-family="'Segoe UI','Helvetica Neue',Arial,'Liberation Sans',sans-serif" font-size="10.4" font-weight="500" fill="#1B2733" text-anchor="start">sent via SkipCash. Follow-up if unpaid in 48h.</text><rect x="610.0" y="588.0" width="311.0" height="30.0" rx="6" ry="6" fill="#fff" stroke="#E3E8EE" stroke-width="1"/><text x="622.0" y="607.0" font-family="'Segoe UI','Helvetica Neue',Arial,'Liberation Sans',sans-serif" font-size="9.6" font-weight="600" fill="#0F6CBD" text-anchor="start">📎  renewal-quote.pdf</text><circle cx="913.0" cy="592" r="15" fill="#C9A24B" stroke="#fff" stroke-width="2"/><circle cx="913.0" cy="592" r="15" fill="none" stroke="#5E0E26" stroke-width="1" opacity="0.5"/><text x="913.0" y="597.4" font-family="'Segoe UI','Helvetica Neue',Arial,'Liberation Sans',sans-serif" font-size="14.25" font-weight="900" fill="#3a2a06" text-anchor="middle">3</text><rect x="933.0" y="588.0" width="311.0" height="30.0" rx="6" ry="6" fill="#fff" stroke="#E3E8EE" stroke-width="1"/><text x="945.0" y="607.0" font-family="'Segoe UI','Helvetica Neue',Arial,'Liberation Sans',sans-serif" font-size="9.6" font-weight="600" fill="#1B2733" text-anchor="start">Follow-up: 12 Aug ✓</text><rect x="610.0" y="628.0" width="634.0" height="28.0" rx="6" ry="6" fill="#FDECEC" stroke="#E7B4B4" stroke-width="1"/><text x="622.0" y="646.0" font-family="'Segoe UI','Helvetica Neue',Arial,'Liberation Sans',sans-serif" font-size="9.8" font-weight="700" fill="#B4342B" text-anchor="start">!  4 mandatory fields required before save</text><circle cx="616" cy="642" r="15" fill="#C9A24B" stroke="#fff" stroke-width="2"/><circle cx="616" cy="642" r="15" fill="none" stroke="#5E0E26" stroke-width="1" opacity="0.5"/><text x="616.0" y="647.4" font-family="'Segoe UI','Helvetica Neue',Arial,'Liberation Sans',sans-serif" font-size="14.25" font-weight="900" fill="#3a2a06" text-anchor="middle">1</text><rect x="1152.0" y="626.0" width="92.0" height="30.0" rx="6" ry="6" fill="#0F6CBD"/><text x="1198.0" y="645.0" font-family="'Segoe UI','Helvetica Neue',Arial,'Liberation Sans',sans-serif" font-size="10.5" font-weight="700" fill="#fff" text-anchor="middle">Save &amp; log</text><rect x="610.0" y="986.0" width="634.0" height="26.0" rx="6" ry="6" fill="#E8F1FB"/><text x="622.0" y="1003.0" font-family="'Segoe UI','Helvetica Neue',Arial,'Liberation Sans',sans-serif" font-size="9.6" font-weight="600" fill="#0A4C86" text-anchor="start">Auto-captured:  21 Jul 2026 · 10:42 · S. Kamal · WhatsApp</text><circle cx="616" cy="986" r="15" fill="#C9A24B" stroke="#fff" stroke-width="2"/><circle cx="616" cy="986" r="15" fill="none" stroke="#5E0E26" stroke-width="1" opacity="0.5"/><text x="616.0" y="991.4" font-family="'Segoe UI','Helvetica Neue',Arial,'Liberation Sans',sans-serif" font-size="14.25" font-weight="900" fill="#3a2a06" text-anchor="middle">2</text><rect x="1274.0" y="238.0" width="430.0" height="788.0" rx="9" ry="9" fill="#FFFFFF" stroke="#E3E8EE" stroke-width="1.2"/><g filter="url(#dsSoft)"><rect x="1274.0" y="238.0" width="430.0" height="788.0" rx="9" ry="9" fill="none"/></g><rect x="1286.0" y="250.0" width="22.0" height="22.0" rx="5" ry="5" fill="#F3F7FB" stroke="#E3E8EE" stroke-width="1"/><g transform="translate(1289.08,253.08) scale(0.6599999999999999)"><rect x="4" y="10" width="16" height="12" rx="2" fill="#C9A24B"/><path d="M6.5 10 V7 Q6.5 2.5 12 2.5 Q17.5 2.5 17.5 7 V10" fill="none" stroke="#C9A24B" stroke-width="2.4"/><circle cx="12" cy="15" r="2" fill="#fff"/></g><text x="1316.0" y="265.0" font-family="'Segoe UI','Helvetica Neue',Arial,'Liberation Sans',sans-serif" font-size="12.5" font-weight="800" fill="#1B2733" text-anchor="start">Audit trail</text><line x1="1286.0" y1="278.0" x2="1692.0" y2="278.0" stroke="#E3E8EE" stroke-width="1" stroke-linecap="round"/><circle cx="1692.0" cy="250" r="15" fill="#C9A24B" stroke="#fff" stroke-width="2"/><circle cx="1692.0" cy="250" r="15" fill="none" stroke="#5E0E26" stroke-width="1" opacity="0.5"/><text x="1692.0" y="255.4" font-family="'Segoe UI','Helvetica Neue',Arial,'Liberation Sans',sans-serif" font-size="14.25" font-weight="900" fill="#3a2a06" text-anchor="middle">4</text><circle cx="1294.0" cy="302" r="4" fill="#0F6CBD"/><line x1="1294.0" y1="308" x2="1294.0" y2="338" stroke="#E3E8EE" stroke-width="1.4"/><rect x="1308.0" y="292.0" width="20.0" height="20.0" rx="5" ry="5" fill="#F3F7FB" stroke="#E3E8EE" stroke-width="1"/><g transform="translate(1310.8,294.8) scale(0.6)"><rect x="3" y="6.5" width="18" height="13" rx="2.2" fill="#0F6CBD"/><path d="M9 6.5 V5 Q9 3.5 10.5 3.5 H13.5 Q15 3.5 15 5 V6.5" fill="none" stroke="#0F6CBD" stroke-width="1.8"/><rect x="6" y="10" width="12" height="1.7" rx="0.8" fill="#fff"/><rect x="6" y="13.5" width="8" height="1.7" rx="0.8" fill="#fff"/></g><text x="1336.0" y="302.0" font-family="'Segoe UI','Helvetica Neue',Arial,'Liberation Sans',sans-serif" font-size="11" font-weight="700" fill="#1B2733" text-anchor="start">Interaction created</text><text x="1336.0" y="318.0" font-family="'Segoe UI','Helvetica Neue',Arial,'Liberation Sans',sans-serif" font-size="9.6" font-weight="500" fill="#5A6B7B" text-anchor="start">S. Kamal · WhatsApp</text><text x="1686.0" y="302.0" font-family="'Segoe UI','Helvetica Neue',Arial,'Liberation Sans',sans-serif" font-size="9" font-weight="500" fill="#94A3B2" text-anchor="end">10:42</text><circle cx="1294.0" cy="352" r="4" fill="#0F6CBD"/><line x1="1294.0" y1="358" x2="1294.0" y2="388" stroke="#E3E8EE" stroke-width="1.4"/><rect x="1308.0" y="342.0" width="20.0" height="20.0" rx="5" ry="5" fill="#F3F7FB" stroke="#E3E8EE" stroke-width="1"/><g transform="translate(1310.8,344.8) scale(0.6)"><circle cx="5" cy="6" r="3" fill="#0F6CBD"/><circle cx="19" cy="6" r="3" fill="#0F6CBD"/><circle cx="12" cy="18" r="3" fill="#0F6CBD"/><path d="M5 9 V11 Q5 15 12 15 M19 9 V11 Q19 15 12 15" fill="none" stroke="#0F6CBD" stroke-width="1.8"/></g><text x="1336.0" y="352.0" font-family="'Segoe UI','Helvetica Neue',Arial,'Liberation Sans',sans-serif" font-size="11" font-weight="700" fill="#1B2733" text-anchor="start">Field &#x27;Outcome&#x27; set</text><text x="1336.0" y="368.0" font-family="'Segoe UI','Helvetica Neue',Arial,'Liberation Sans',sans-serif" font-size="9.6" font-weight="500" fill="#5A6B7B" text-anchor="start">Resolved – FCR</text><text x="1686.0" y="352.0" font-family="'Segoe UI','Helvetica Neue',Arial,'Liberation Sans',sans-serif" font-size="9" font-weight="500" fill="#94A3B2" text-anchor="end">10:44</text><circle cx="1294.0" cy="402" r="4" fill="#0F6CBD"/><line x1="1294.0" y1="408" x2="1294.0" y2="438" stroke="#E3E8EE" stroke-width="1.4"/><rect x="1308.0" y="392.0" width="20.0" height="20.0" rx="5" ry="5" fill="#F3F7FB" stroke="#E3E8EE" stroke-width="1"/><g transform="translate(1310.8,394.8) scale(0.6)"><path d="M12 3 Q17 3 17 9 V13 L19 16 H5 L7 13 V9 Q7 3 12 3 Z" fill="#0F6CBD"/><circle cx="12" cy="18.5" r="2" fill="#0F6CBD"/></g><text x="1336.0" y="402.0" font-family="'Segoe UI','Helvetica Neue',Arial,'Liberation Sans',sans-serif" font-size="11" font-weight="700" fill="#1B2733" text-anchor="start">Follow-up task created</text><text x="1336.0" y="418.0" font-family="'Segoe UI','Helvetica Neue',Arial,'Liberation Sans',sans-serif" font-size="9.6" font-weight="500" fill="#5A6B7B" text-anchor="start">Due 12 Aug</text><text x="1686.0" y="402.0" font-family="'Segoe UI','Helvetica Neue',Arial,'Liberation Sans',sans-serif" font-size="9" font-weight="500" fill="#94A3B2" text-anchor="end">10:44</text><circle cx="1294.0" cy="452" r="4" fill="#0F6CBD"/><line x1="1294.0" y1="458" x2="1294.0" y2="488" stroke="#E3E8EE" stroke-width="1.4"/><rect x="1308.0" y="442.0" width="20.0" height="20.0" rx="5" ry="5" fill="#F3F7FB" stroke="#E3E8EE" stroke-width="1"/><text x="1336.0" y="452.0" font-family="'Segoe UI','Helvetica Neue',Arial,'Liberation Sans',sans-serif" font-size="11" font-weight="700" fill="#1B2733" text-anchor="start">Payment link sent</text><text x="1336.0" y="468.0" font-family="'Segoe UI','Helvetica Neue',Arial,'Liberation Sans',sans-serif" font-size="9.6" font-weight="500" fill="#5A6B7B" text-anchor="start">SkipCash · QAR 6,200</text><text x="1686.0" y="452.0" font-family="'Segoe UI','Helvetica Neue',Arial,'Liberation Sans',sans-serif" font-size="9" font-weight="500" fill="#94A3B2" text-anchor="end">10:45</text><circle cx="1294.0" cy="502" r="4" fill="#C9A24B"/><line x1="1294.0" y1="508" x2="1294.0" y2="538" stroke="#E3E8EE" stroke-width="1.4"/><rect x="1308.0" y="492.0" width="20.0" height="20.0" rx="5" ry="5" fill="#F3F7FB" stroke="#E3E8EE" stroke-width="1"/><g transform="translate(1310.8,494.8) scale(0.6)"><rect x="4" y="10" width="16" height="12" rx="2" fill="#C9A24B"/><path d="M6.5 10 V7 Q6.5 2.5 12 2.5 Q17.5 2.5 17.5 7 V10" fill="none" stroke="#C9A24B" stroke-width="2.4"/><circle cx="12" cy="15" r="2" fill="#fff"/></g><text x="1336.0" y="502.0" font-family="'Segoe UI','Helvetica Neue',Arial,'Liberation Sans',sans-serif" font-size="11" font-weight="700" fill="#1B2733" text-anchor="start">Record locked &amp; hashed</text><text x="1336.0" y="518.0" font-family="'Segoe UI','Helvetica Neue',Arial,'Liberation Sans',sans-serif" font-size="9.6" font-weight="500" fill="#5A6B7B" text-anchor="start">immutable entry</text><text x="1686.0" y="502.0" font-family="'Segoe UI','Helvetica Neue',Arial,'Liberation Sans',sans-serif" font-size="9" font-weight="500" fill="#94A3B2" text-anchor="end">10:45</text><circle cx="1294.0" cy="552" r="4" fill="#0F6CBD"/><line x1="1294.0" y1="558" x2="1294.0" y2="588" stroke="#E3E8EE" stroke-width="1.4"/><rect x="1308.0" y="542.0" width="20.0" height="20.0" rx="5" ry="5" fill="#F3F7FB" stroke="#E3E8EE" stroke-width="1"/><g transform="translate(1310.8,544.8) scale(0.6)"><circle cx="8" cy="8" r="3.2" fill="#0F6CBD"/><circle cx="16.5" cy="8.5" r="2.7" fill="#0F6CBD" opacity="0.75"/><path d="M2.5 20 Q2.5 12.5 8 12.5 Q13.5 12.5 13.5 20 Z" fill="#0F6CBD"/><path d="M13.5 20 Q13.5 13.5 16.5 13.5 Q21.5 13.5 21.5 20 Z" fill="#0F6CBD" opacity="0.75"/></g><text x="1336.0" y="552.0" font-family="'Segoe UI','Helvetica Neue',Arial,'Liberation Sans',sans-serif" font-size="11" font-weight="700" fill="#1B2733" text-anchor="start">Viewed by supervisor</text><text x="1336.0" y="568.0" font-family="'Segoe UI','Helvetica Neue',Arial,'Liberation Sans',sans-serif" font-size="9.6" font-weight="500" fill="#5A6B7B" text-anchor="start">N. Al-Sadi</text><text x="1686.0" y="552.0" font-family="'Segoe UI','Helvetica Neue',Arial,'Liberation Sans',sans-serif" font-size="9" font-weight="500" fill="#94A3B2" text-anchor="end">11:10</text><rect x="0" y="1054" width="1760" height="46" fill="#16283A"/><rect x="0" y="1054" width="1760" height="2.5" fill="#C9A24B"/><text x="40.0" y="1082.0" font-family="'Segoe UI','Helvetica Neue',Arial,'Liberation Sans',sans-serif" font-size="12" font-weight="600" fill="#CBD6E1" text-anchor="start">QICIRCO Enterprise CRM Implementation  ·  Technical Proposal</text><text x="880.0" y="1082.0" font-family="'Segoe UI','Helvetica Neue',Arial,'Liberation Sans',sans-serif" font-size="11.5" font-weight="700" fill="#C9A24B" text-anchor="middle">Solution option: Microsoft Dynamics 365</text><text x="1720.0" y="1082.0" font-family="'Segoe UI','Helvetica Neue',Arial,'Liberation Sans',sans-serif" font-size="11.5" font-weight="500" fill="#CBD6E1" text-anchor="end">Trion Technology  ×  Volge   ·   FR-2 · Interaction Logging &amp; Audit</text></svg>