<svg xmlns="http://www.w3.org/2000/svg" width="1760" height="1100" viewBox="0 0 1760 1100" font-family="'Segoe UI','Helvetica Neue',Arial,'Liberation Sans',sans-serif"><defs>
  <linearGradient id="qicHead" x1="0" y1="0" x2="1" y2="0">
    <stop offset="0" stop-color="#16283A"/>
    <stop offset="0.62" stop-color="#5E0E26"/>
    <stop offset="1" stop-color="#8A1538"/>
  </linearGradient>
  <linearGradient id="pfBadge" x1="0" y1="0" x2="0" y2="1">
    <stop offset="0" stop-color="#0D9DDA"/>
    <stop offset="1" stop-color="#0B5CAB"/>
  </linearGradient>
  <linearGradient id="pfBand" x1="0" y1="0" x2="0" y2="1">
    <stop offset="0" stop-color="#0D9DDA"/>
    <stop offset="1" stop-color="#032D60"/>
  </linearGradient>
  <linearGradient id="aiGrad" x1="0" y1="0" x2="1" y2="1">
    <stop offset="0" stop-color="#8E5BE8"/>
    <stop offset="1" stop-color="#0D9DDA"/>
  </linearGradient>
  <filter id="ds" x="-8%" y="-8%" width="116%" height="120%">
    <feDropShadow dx="0" dy="2.5" stdDeviation="4.5" flood-color="#1b283a" flood-opacity="0.16"/>
  </filter>
  <filter id="dsSoft" x="-20%" y="-20%" width="140%" height="150%">
    <feDropShadow dx="0" dy="1.5" stdDeviation="2.5" flood-color="#1b283a" flood-opacity="0.13"/>
  </filter>
  <marker id="arr" markerWidth="11" markerHeight="11" refX="8.5" refY="5.5" orient="auto">
    <path d="M1,1 L9.5,5.5 L1,10" fill="none" stroke="#5A6B7B" stroke-width="1.8" stroke-linecap="round" stroke-linejoin="round"/>
  </marker>
  <marker id="arrP" markerWidth="11" markerHeight="11" refX="8.5" refY="5.5" orient="auto">
    <path d="M1,1 L9.5,5.5 L1,10" fill="none" stroke="#0B5CAB" stroke-width="1.9" stroke-linecap="round" stroke-linejoin="round"/>
  </marker>
  <marker id="arrG" markerWidth="11" markerHeight="11" refX="8.5" refY="5.5" orient="auto">
    <path d="M1,1 L9.5,5.5 L1,10" fill="none" stroke="#C9A24B" stroke-width="2" stroke-linecap="round" stroke-linejoin="round"/>
  </marker>
  <marker id="dot" markerWidth="8" markerHeight="8" refX="4" refY="4">
    <circle cx="4" cy="4" r="3" fill="#0D9DDA"/>
  </marker>
</defs><rect width="1760" height="1100" fill="#EEF2F6"/><rect x="0" y="0" width="1760" height="104" fill="url(#qicHead)"/><rect x="0" y="100" width="1760" height="4" fill="#C9A24B"/><circle cx="70" cy="52.0" r="26" fill="#ffffff" opacity="0.10"/><circle cx="70" cy="52.0" r="22" fill="none" stroke="#C9A24B" stroke-width="2"/><path d="M70 38.0 L83 46.0 L83 59.0 Q83 65.0 70 68.0 Q57 65.0 57 59.0 L57 46.0 Z" fill="#ffffff"/><path d="M70 44.0 L77 48.5 L77 56.0 Q77 59.5 70 61.5 Q63 59.5 63 56.0 L63 48.5 Z" fill="#8A1538"/><text x="114.0" y="40.0" font-family="'Segoe UI','Helvetica Neue',Arial,'Liberation Sans',sans-serif" font-size="27" font-weight="800" fill="#ffffff" text-anchor="start" letter-spacing="2">QICIRCO</text><text x="114.0" y="63.0" font-family="'Segoe UI','Helvetica Neue',Arial,'Liberation Sans',sans-serif" font-size="13.5" font-weight="500" fill="#EBD9C2" text-anchor="start">Qatar General Insurance &amp; Reinsurance Company</text><text x="114.0" y="84.0" font-family="'Segoe UI','Helvetica Neue',Arial,'Liberation Sans',sans-serif" font-size="11.5" font-weight="700" fill="#C9A24B" text-anchor="start" letter-spacing="2.5">REQUIREMENT → REALIZED IN PRODUCT</text><text x="940.0" y="52.0" font-family="'Segoe UI','Helvetica Neue',Arial,'Liberation Sans',sans-serif" font-size="22" font-weight="700" fill="#ffffff" text-anchor="middle">Departmental Routing, Queues &amp; Ownership</text><text x="940.0" y="76.0" font-family="'Segoe UI','Helvetica Neue',Arial,'Liberation Sans',sans-serif" font-size="13" font-weight="400" fill="#D9C3AD" text-anchor="middle" font-style="italic">How the Salesforce solution addresses this QICIRCO requirement</text><rect x="1452.0" y="26.0" width="268.0" height="52.0" rx="10" ry="10" fill="#ffffff" opacity="0.97"/><g transform="translate(1464.3,38.8) scale(1.0)"><path d="M6 20 Q1.5 20 1.5 15.5 Q1.5 11.5 5.6 11 Q6 6.5 10.5 6.5 Q13.6 6.5 15 9 Q16.4 7.7 18.4 7.7 Q22.5 7.7 22.5 12 Q26 12.3 26 16 Q26 20 21.5 20 Z" fill="#00A1E0"/></g><text x="1502.0" y="49.0" font-family="'Segoe UI','Helvetica Neue',Arial,'Liberation Sans',sans-serif" font-size="15.5" font-weight="800" fill="#032D60" text-anchor="start">Salesforce</text><text x="1502.0" y="66.0" font-family="'Segoe UI','Helvetica Neue',Arial,'Liberation Sans',sans-serif" font-size="9.6" font-weight="600" fill="#0B5CAB" text-anchor="start">Sales Cloud · Service Cloud · Platform</text><rect x="40.0" y="124.0" width="372.0" height="916.0" rx="12" ry="12" fill="#fff" stroke="#D5DEE7" stroke-width="1.4"/><g filter="url(#dsSoft)"><rect x="40.0" y="124.0" width="372.0" height="916.0" rx="12" ry="12" fill="none"/></g><rect x="40.0" y="124.0" width="372.0" height="6.0" rx="3" ry="3" fill="#8A1538"/><text x="58.0" y="154.0" font-family="'Segoe UI','Helvetica Neue',Arial,'Liberation Sans',sans-serif" font-size="11" font-weight="800" fill="#8A1538" text-anchor="start" letter-spacing="2">REQUIREMENT</text><rect x="340.0" y="140.0" width="54.0" height="20.0" rx="6" ry="6" fill="#16283A"/><text x="367.0" y="154.0" font-family="'Segoe UI','Helvetica Neue',Arial,'Liberation Sans',sans-serif" font-size="11" font-weight="800" fill="#fff" text-anchor="middle">FR-4</text><text x="58.0" y="178.0" font-family="'Segoe UI','Helvetica Neue',Arial,'Liberation Sans',sans-serif" font-size="15.5" font-weight="800" fill="#032D60" text-anchor="start"><tspan x="58.0" dy="0">Routing &amp; Queue Management</tspan></text><rect x="58.0" y="203.0" width="107.6" height="17.0" rx="8" ry="8" fill="#F6F8FB" stroke="#D5DEE7" stroke-width="1"/><text x="111.8" y="215.0" font-family="'Segoe UI','Helvetica Neue',Arial,'Liberation Sans',sans-serif" font-size="8.8" font-weight="700" fill="#22384E" text-anchor="middle">RFP §5.2 / §10.1</text><rect x="171.6" y="203.0" width="113.2" height="17.0" rx="8" ry="8" fill="#F6F8FB" stroke="#D5DEE7" stroke-width="1"/><text x="228.2" y="215.0" font-family="'Segoe UI','Helvetica Neue',Arial,'Liberation Sans',sans-serif" font-size="8.8" font-weight="700" fill="#22384E" text-anchor="middle">BRD §11.2 / §11.5</text><rect x="290.8" y="203.0" width="90.8" height="17.0" rx="8" ry="8" fill="#F6F8FB" stroke="#D5DEE7" stroke-width="1"/><text x="336.2" y="215.0" font-family="'Segoe UI','Helvetica Neue',Arial,'Liberation Sans',sans-serif" font-size="8.8" font-weight="700" fill="#22384E" text-anchor="middle">Proposal FR-4</text><circle cx="61" cy="230" r="2.4" fill="#0D9DDA"/><text x="72.0" y="233.0" font-family="'Segoe UI','Helvetica Neue',Arial,'Liberation Sans',sans-serif" font-size="10.6" font-weight="500" fill="#1B2733" text-anchor="start"><tspan x="72.0" dy="0">Department-based routing, queue assignment</tspan><tspan x="72.0" dy="14">and follow-up ownership.</tspan></text><circle cx="61" cy="266" r="2.4" fill="#0D9DDA"/><text x="72.0" y="269.0" font-family="'Segoe UI','Helvetica Neue',Arial,'Liberation Sans',sans-serif" font-size="10.6" font-weight="500" fill="#1B2733" text-anchor="start"><tspan x="72.0" dy="0">Configurable routing rules aligned to</tspan><tspan x="72.0" dy="14">approved SOPs.</tspan></text><circle cx="61" cy="302" r="2.4" fill="#0D9DDA"/><text x="72.0" y="305.0" font-family="'Segoe UI','Helvetica Neue',Arial,'Liberation Sans',sans-serif" font-size="10.6" font-weight="500" fill="#1B2733" text-anchor="start"><tspan x="72.0" dy="0">Queue management, workload distribution</tspan><tspan x="72.0" dy="14">and reassignment visibility.</tspan></text><line x1="58.0" y1="345.0" x2="394.0" y2="345.0" stroke="#D5DEE7" stroke-width="1" stroke-linecap="round"/><rect x="58.0" y="352.0" width="20.0" height="20.0" rx="5" ry="5" fill="#F3F7FB" stroke="#E3E8EE" stroke-width="1"/><g transform="translate(60.8,354.8) scale(0.6)"><path d="M3 18 A9 9 0 0 1 21 18" fill="none" stroke="#0D9DDA" stroke-width="2.4"/><line x1="12" y1="18" x2="16" y2="12" stroke="#0D9DDA" stroke-width="2.2" stroke-linecap="round"/><circle cx="12" cy="18" r="2" fill="#0D9DDA"/></g><text x="86.0" y="367.0" font-family="'Segoe UI','Helvetica Neue',Arial,'Liberation Sans',sans-serif" font-size="10.5" font-weight="800" fill="#032D60" text-anchor="start" letter-spacing="0.5">HOW SALESFORCE DELIVERS IT</text><circle cx="68" cy="387" r="11" fill="#C9A24B" stroke="#fff" stroke-width="2"/><circle cx="68" cy="387" r="11" fill="none" stroke="#5E0E26" stroke-width="1" opacity="0.5"/><text x="68.0" y="391.0" font-family="'Segoe UI','Helvetica Neue',Arial,'Liberation Sans',sans-serif" font-size="10.45" font-weight="900" fill="#3a2a06" text-anchor="middle">1</text><text x="86.0" y="383.0" font-family="'Segoe UI','Helvetica Neue',Arial,'Liberation Sans',sans-serif" font-size="10.4" font-weight="500" fill="#1B2733" text-anchor="start"><tspan x="86.0" dy="0">Each department has its own queues,</tspan><tspan x="86.0" dy="13.5">stages, SLA rules and views.</tspan></text><circle cx="68" cy="421.0" r="11" fill="#C9A24B" stroke="#fff" stroke-width="2"/><circle cx="68" cy="421.0" r="11" fill="none" stroke="#5E0E26" stroke-width="1" opacity="0.5"/><text x="68.0" y="425.0" font-family="'Segoe UI','Helvetica Neue',Arial,'Liberation Sans',sans-serif" font-size="10.45" font-weight="900" fill="#3a2a06" text-anchor="middle">2</text><text x="86.0" y="417.0" font-family="'Segoe UI','Helvetica Neue',Arial,'Liberation Sans',sans-serif" font-size="10.4" font-weight="500" fill="#1B2733" text-anchor="start"><tspan x="86.0" dy="0">Classification rules route every case to</tspan><tspan x="86.0" dy="13.5">the correct queue without manual triage.</tspan></text><circle cx="68" cy="455.0" r="11" fill="#C9A24B" stroke="#fff" stroke-width="2"/><circle cx="68" cy="455.0" r="11" fill="none" stroke="#5E0E26" stroke-width="1" opacity="0.5"/><text x="68.0" y="459.0" font-family="'Segoe UI','Helvetica Neue',Arial,'Liberation Sans',sans-serif" font-size="10.45" font-weight="900" fill="#3a2a06" text-anchor="middle">3</text><text x="86.0" y="451.0" font-family="'Segoe UI','Helvetica Neue',Arial,'Liberation Sans',sans-serif" font-size="10.4" font-weight="500" fill="#1B2733" text-anchor="start"><tspan x="86.0" dy="0">Work is assigned by skill and capacity;</tspan><tspan x="86.0" dy="13.5">ownership is always explicit.</tspan></text><circle cx="68" cy="489.0" r="11" fill="#C9A24B" stroke="#fff" stroke-width="2"/><circle cx="68" cy="489.0" r="11" fill="none" stroke="#5E0E26" stroke-width="1" opacity="0.5"/><text x="68.0" y="493.0" font-family="'Segoe UI','Helvetica Neue',Arial,'Liberation Sans',sans-serif" font-size="10.45" font-weight="900" fill="#3a2a06" text-anchor="middle">4</text><text x="86.0" y="485.0" font-family="'Segoe UI','Helvetica Neue',Arial,'Liberation Sans',sans-serif" font-size="10.4" font-weight="500" fill="#1B2733" text-anchor="start"><tspan x="86.0" dy="0">Supervisors balance workload and</tspan><tspan x="86.0" dy="13.5">reassign from a single console.</tspan></text><rect x="428.0" y="124.0" width="1292.0" height="916.0" rx="10" ry="10" fill="#fff" stroke="#C7D2DE" stroke-width="1.4"/><g filter="url(#ds)"><rect x="428.0" y="124.0" width="1292.0" height="916.0" rx="10" ry="10" fill="none"/></g><rect x="428.0" y="124.0" width="1292.0" height="26.0" rx="10" ry="10" fill="#E7ECF2"/><rect x="428.0" y="140.0" width="1292.0" height="10.0" rx="12" ry="12" fill="#E7ECF2"/><circle cx="444" cy="137.0" r="4.2" fill="#F25F5C"/><circle cx="459" cy="137.0" r="4.2" fill="#FFB84D"/><circle cx="474" cy="137.0" r="4.2" fill="#2ECC71"/><rect x="498.0" y="130.0" width="1152.0" height="14.0" rx="7" ry="7" fill="#FFFFFF" stroke="#D4DCE5" stroke-width="1"/><circle cx="512" cy="137.0" r="3.4" fill="#1E9E5A"/><text x="522.0" y="140.4" font-family="'Segoe UI','Helvetica Neue',Arial,'Liberation Sans',sans-serif" font-size="9.4" font-weight="500" fill="#5A6B7B" text-anchor="start">qicirco.lightning.force.com</text><rect x="428.0" y="150.0" width="1292.0" height="38.0" rx="12" ry="12" fill="#FFFFFF" stroke="#E5E5E5" stroke-width="1"/><rect x="444.0" y="164.0" width="2.8" height="2.8" rx="0.6" fill="#747474"/><rect x="449.0" y="164.0" width="2.8" height="2.8" rx="0.6" fill="#747474"/><rect x="454.0" y="164.0" width="2.8" height="2.8" rx="0.6" fill="#747474"/><rect x="444.0" y="169.0" width="2.8" height="2.8" rx="0.6" fill="#747474"/><rect x="449.0" y="169.0" width="2.8" height="2.8" rx="0.6" fill="#747474"/><rect x="454.0" y="169.0" width="2.8" height="2.8" rx="0.6" fill="#747474"/><rect x="444.0" y="174.0" width="2.8" height="2.8" rx="0.6" fill="#747474"/><rect x="449.0" y="174.0" width="2.8" height="2.8" rx="0.6" fill="#747474"/><rect x="454.0" y="174.0" width="2.8" height="2.8" rx="0.6" fill="#747474"/><g transform="translate(461.9533333333333,159.32) scale(0.7333333333333333)"><path d="M6 20 Q1.5 20 1.5 15.5 Q1.5 11.5 5.6 11 Q6 6.5 10.5 6.5 Q13.6 6.5 15 9 Q16.4 7.7 18.4 7.7 Q22.5 7.7 22.5 12 Q26 12.3 26 16 Q26 20 21.5 20 Z" fill="#0D9DDA"/></g><text x="490.0" y="173.0" font-family="'Segoe UI','Helvetica Neue',Arial,'Liberation Sans',sans-serif" font-size="12" font-weight="700" fill="#16325C" text-anchor="start">QICIRCO CRM</text><rect x="904.0" y="157.0" width="340.0" height="24.0" rx="6" ry="6" fill="#F3F3F3" stroke="#DDDBDA" stroke-width="1"/><text x="916.0" y="172.4" font-family="'Segoe UI','Helvetica Neue',Arial,'Liberation Sans',sans-serif" font-size="9.6" font-weight="500" fill="#94A3B2" text-anchor="start">⌕  Search Salesforce...</text><text x="1702.0" y="173.0" font-family="'Segoe UI','Helvetica Neue',Arial,'Liberation Sans',sans-serif" font-size="12" font-weight="400" fill="#706E6B" text-anchor="end">⚙</text><text x="1678.0" y="173.0" font-family="'Segoe UI','Helvetica Neue',Arial,'Liberation Sans',sans-serif" font-size="12" font-weight="400" fill="#706E6B" text-anchor="end">?</text><text x="1654.0" y="173.0" font-family="'Segoe UI','Helvetica Neue',Arial,'Liberation Sans',sans-serif" font-size="12" font-weight="400" fill="#706E6B" text-anchor="end">○</text><text x="1630.0" y="173.0" font-family="'Segoe UI','Helvetica Neue',Arial,'Liberation Sans',sans-serif" font-size="12" font-weight="400" fill="#706E6B" text-anchor="end">★</text><circle cx="1700" cy="169.0" r="11" fill="#0D9DDA"/><text x="1700.0" y="172.7" font-family="'Segoe UI','Helvetica Neue',Arial,'Liberation Sans',sans-serif" font-size="9.02" font-weight="700" fill="#fff" text-anchor="middle">SA</text><rect x="428.0" y="188.0" width="1292.0" height="40.0" rx="12" ry="12" fill="#FFFFFF" stroke="#E5E5E5" stroke-width="1"/><g transform="translate(440.944,196.38400000000001) scale(0.88)"><path d="M6 20 Q1.5 20 1.5 15.5 Q1.5 11.5 5.6 11 Q6 6.5 10.5 6.5 Q13.6 6.5 15 9 Q16.4 7.7 18.4 7.7 Q22.5 7.7 22.5 12 Q26 12.3 26 16 Q26 20 21.5 20 Z" fill="#0D9DDA"/></g><g transform="translate(447.72,202.28) scale(0.4583333333333333)"><rect x="3" y="6.5" width="18" height="13" rx="2.2" fill="#0D9DDA"/><path d="M9 6.5 V5 Q9 3.5 10.5 3.5 H13.5 Q15 3.5 15 5 V6.5" fill="none" stroke="#0D9DDA" stroke-width="1.8"/><rect x="6" y="10" width="12" height="1.7" rx="0.8" fill="#fff"/><rect x="6" y="13.5" width="8" height="1.7" rx="0.8" fill="#fff"/></g><text x="472.0" y="212.0" font-family="'Segoe UI','Helvetica Neue',Arial,'Liberation Sans',sans-serif" font-size="12.5" font-weight="800" fill="#16325C" text-anchor="start">Service</text><text x="548.0" y="212.0" font-family="'Segoe UI','Helvetica Neue',Arial,'Liberation Sans',sans-serif" font-size="10.8" font-weight="600" fill="#5A6B7B" text-anchor="start">Home</text><text x="598.0" y="212.0" font-family="'Segoe UI','Helvetica Neue',Arial,'Liberation Sans',sans-serif" font-size="10.8" font-weight="700" fill="#16325C" text-anchor="start">Cases</text><rect x="596.0" y="225.0" width="43.0" height="3.0" rx="12" ry="12" fill="#0176D3"/><text x="655.0" y="212.0" font-family="'Segoe UI','Helvetica Neue',Arial,'Liberation Sans',sans-serif" font-size="10.8" font-weight="600" fill="#5A6B7B" text-anchor="start">Accounts</text><text x="733.0" y="212.0" font-family="'Segoe UI','Helvetica Neue',Arial,'Liberation Sans',sans-serif" font-size="10.8" font-weight="600" fill="#5A6B7B" text-anchor="start">Contacts</text><text x="811.0" y="212.0" font-family="'Segoe UI','Helvetica Neue',Arial,'Liberation Sans',sans-serif" font-size="10.8" font-weight="600" fill="#5A6B7B" text-anchor="start">Reports</text><text x="882.0" y="212.0" font-family="'Segoe UI','Helvetica Neue',Arial,'Liberation Sans',sans-serif" font-size="10.8" font-weight="600" fill="#5A6B7B" text-anchor="start">Dashboards</text><text x="974.0" y="212.0" font-family="'Segoe UI','Helvetica Neue',Arial,'Liberation Sans',sans-serif" font-size="10.8" font-weight="600" fill="#5A6B7B" text-anchor="start">More ▾</text><rect x="428.0" y="228.0" width="1292.0" height="812.0" rx="12" ry="12" fill="#F3F3F3"/><rect x="444.0" y="242.0" width="302.4" height="784.0" rx="9" ry="9" fill="#FFFFFF" stroke="#E3E8EE" stroke-width="1.2"/><g filter="url(#dsSoft)"><rect x="444.0" y="242.0" width="302.4" height="784.0" rx="9" ry="9" fill="none"/></g><rect x="456.0" y="254.0" width="22.0" height="22.0" rx="5" ry="5" fill="#F3F7FB" stroke="#E3E8EE" stroke-width="1"/><g transform="translate(459.08,257.08) scale(0.6599999999999999)"><circle cx="5" cy="5" r="2.6" fill="#0D9DDA"/><circle cx="5" cy="19" r="2.6" fill="#0D9DDA"/><circle cx="19" cy="12" r="2.6" fill="#0D9DDA"/><path d="M5 7.6 V16.4 M7 5 Q19 5 19 12 M7 19 Q19 19 19 12" fill="none" stroke="#0D9DDA" stroke-width="1.7"/></g><text x="486.0" y="269.0" font-family="'Segoe UI','Helvetica Neue',Arial,'Liberation Sans',sans-serif" font-size="12.5" font-weight="800" fill="#1B2733" text-anchor="start">Department queues</text><line x1="456.0" y1="282.0" x2="734.4" y2="282.0" stroke="#E3E8EE" stroke-width="1" stroke-linecap="round"/><circle cx="734.4" cy="254" r="15" fill="#C9A24B" stroke="#fff" stroke-width="2"/><circle cx="734.4" cy="254" r="15" fill="none" stroke="#5E0E26" stroke-width="1" opacity="0.5"/><text x="734.4" y="259.4" font-family="'Segoe UI','Helvetica Neue',Arial,'Liberation Sans',sans-serif" font-size="14.25" font-weight="900" fill="#3a2a06" text-anchor="middle">1</text><rect x="452.0" y="294.0" width="286.4" height="40.0" rx="6" ry="6" fill="#EAF2FB"/><rect x="452.0" y="294.0" width="3.0" height="40.0" rx="12" ry="12" fill="#0D9DDA"/><circle cx="466" cy="314" r="5" fill="#0D9DDA"/><text x="478.0" y="311.0" font-family="'Segoe UI','Helvetica Neue',Arial,'Liberation Sans',sans-serif" font-size="10" font-weight="700" fill="#1B2733" text-anchor="start">Customer Service</text><text x="478.0" y="325.0" font-family="'Segoe UI','Helvetica Neue',Arial,'Liberation Sans',sans-serif" font-size="8.2" font-weight="500" fill="#5A6B7B" text-anchor="start">open work items</text><text x="730.4" y="320.0" font-family="'Segoe UI','Helvetica Neue',Arial,'Liberation Sans',sans-serif" font-size="15" font-weight="800" fill="#0D9DDA" text-anchor="end">24</text><circle cx="466" cy="360" r="5" fill="#3E7CB1"/><text x="478.0" y="357.0" font-family="'Segoe UI','Helvetica Neue',Arial,'Liberation Sans',sans-serif" font-size="10" font-weight="700" fill="#1B2733" text-anchor="start">Claims</text><text x="478.0" y="371.0" font-family="'Segoe UI','Helvetica Neue',Arial,'Liberation Sans',sans-serif" font-size="8.2" font-weight="500" fill="#5A6B7B" text-anchor="start">open work items</text><text x="730.4" y="366.0" font-family="'Segoe UI','Helvetica Neue',Arial,'Liberation Sans',sans-serif" font-size="15" font-weight="800" fill="#3E7CB1" text-anchor="end">12</text><circle cx="466" cy="406" r="5" fill="#7A5CC0"/><text x="478.0" y="403.0" font-family="'Segoe UI','Helvetica Neue',Arial,'Liberation Sans',sans-serif" font-size="10" font-weight="700" fill="#1B2733" text-anchor="start">Underwriting</text><text x="478.0" y="417.0" font-family="'Segoe UI','Helvetica Neue',Arial,'Liberation Sans',sans-serif" font-size="8.2" font-weight="500" fill="#5A6B7B" text-anchor="start">open work items</text><text x="730.4" y="412.0" font-family="'Segoe UI','Helvetica Neue',Arial,'Liberation Sans',sans-serif" font-size="15" font-weight="800" fill="#7A5CC0" text-anchor="end">40</text><circle cx="466" cy="452" r="5" fill="#C0392B"/><text x="478.0" y="449.0" font-family="'Segoe UI','Helvetica Neue',Arial,'Liberation Sans',sans-serif" font-size="10" font-weight="700" fill="#1B2733" text-anchor="start">Complaints</text><text x="478.0" y="463.0" font-family="'Segoe UI','Helvetica Neue',Arial,'Liberation Sans',sans-serif" font-size="8.2" font-weight="500" fill="#5A6B7B" text-anchor="start">open work items</text><text x="730.4" y="458.0" font-family="'Segoe UI','Helvetica Neue',Arial,'Liberation Sans',sans-serif" font-size="15" font-weight="800" fill="#C0392B" text-anchor="end">7</text><circle cx="466" cy="498" r="5" fill="#0B875B"/><text x="478.0" y="495.0" font-family="'Segoe UI','Helvetica Neue',Arial,'Liberation Sans',sans-serif" font-size="10" font-weight="700" fill="#1B2733" text-anchor="start">Sales &amp; BD</text><text x="478.0" y="509.0" font-family="'Segoe UI','Helvetica Neue',Arial,'Liberation Sans',sans-serif" font-size="8.2" font-weight="500" fill="#5A6B7B" text-anchor="start">open work items</text><text x="730.4" y="504.0" font-family="'Segoe UI','Helvetica Neue',Arial,'Liberation Sans',sans-serif" font-size="15" font-weight="800" fill="#0B875B" text-anchor="end">15</text><circle cx="466" cy="544" r="5" fill="#E8A33D"/><text x="478.0" y="541.0" font-family="'Segoe UI','Helvetica Neue',Arial,'Liberation Sans',sans-serif" font-size="10" font-weight="700" fill="#1B2733" text-anchor="start">Corporate Servicing</text><text x="478.0" y="555.0" font-family="'Segoe UI','Helvetica Neue',Arial,'Liberation Sans',sans-serif" font-size="8.2" font-weight="500" fill="#5A6B7B" text-anchor="start">open work items</text><text x="730.4" y="550.0" font-family="'Segoe UI','Helvetica Neue',Arial,'Liberation Sans',sans-serif" font-size="15" font-weight="800" fill="#E8A33D" text-anchor="end">9</text><rect x="760.4" y="242.0" width="554.4" height="784.0" rx="9" ry="9" fill="#FFFFFF" stroke="#E3E8EE" stroke-width="1.2"/><g filter="url(#dsSoft)"><rect x="760.4" y="242.0" width="554.4" height="784.0" rx="9" ry="9" fill="none"/></g><rect x="772.4" y="254.0" width="22.0" height="22.0" rx="5" ry="5" fill="#F3F7FB" stroke="#E3E8EE" stroke-width="1"/><g transform="translate(775.48,257.08) scale(0.6599999999999999)"><rect x="3" y="6.5" width="18" height="13" rx="2.2" fill="#0D9DDA"/><path d="M9 6.5 V5 Q9 3.5 10.5 3.5 H13.5 Q15 3.5 15 5 V6.5" fill="none" stroke="#0D9DDA" stroke-width="1.8"/><rect x="6" y="10" width="12" height="1.7" rx="0.8" fill="#fff"/><rect x="6" y="13.5" width="8" height="1.7" rx="0.8" fill="#fff"/></g><text x="802.4" y="269.0" font-family="'Segoe UI','Helvetica Neue',Arial,'Liberation Sans',sans-serif" font-size="12.5" font-weight="800" fill="#1B2733" text-anchor="start">Customer Service queue — work items</text><line x1="772.4" y1="282.0" x2="1302.8" y2="282.0" stroke="#E3E8EE" stroke-width="1" stroke-linecap="round"/><circle cx="1302.8" cy="254" r="15" fill="#C9A24B" stroke="#fff" stroke-width="2"/><circle cx="1302.8" cy="254" r="15" fill="none" stroke="#5E0E26" stroke-width="1" opacity="0.5"/><text x="1302.8" y="259.4" font-family="'Segoe UI','Helvetica Neue',Arial,'Liberation Sans',sans-serif" font-size="14.25" font-weight="900" fill="#3a2a06" text-anchor="middle">2</text><rect x="772.4" y="292.0" width="530.4" height="90.0" rx="4" ry="4" fill="#F4F6F9"/><text x="784.4" y="341.0" font-family="'Segoe UI','Helvetica Neue',Arial,'Liberation Sans',sans-serif" font-size="9.4" font-weight="800" fill="#5A6B7B" text-anchor="start">Case</text><text x="873.1" y="341.0" font-family="'Segoe UI','Helvetica Neue',Arial,'Liberation Sans',sans-serif" font-size="9.4" font-weight="800" fill="#5A6B7B" text-anchor="start">Subject</text><text x="1072.7" y="341.0" font-family="'Segoe UI','Helvetica Neue',Arial,'Liberation Sans',sans-serif" font-size="9.4" font-weight="800" fill="#5A6B7B" text-anchor="start">Pri.</text><text x="1144.8" y="341.0" font-family="'Segoe UI','Helvetica Neue',Arial,'Liberation Sans',sans-serif" font-size="9.4" font-weight="800" fill="#5A6B7B" text-anchor="start">SLA</text><text x="1233.5" y="341.0" font-family="'Segoe UI','Helvetica Neue',Arial,'Liberation Sans',sans-serif" font-size="9.4" font-weight="800" fill="#5A6B7B" text-anchor="start">Owner</text><text x="784.4" y="431.0" font-family="'Segoe UI','Helvetica Neue',Arial,'Liberation Sans',sans-serif" font-size="9.6" font-weight="600" fill="#1B2733" text-anchor="start">INC-2043</text><text x="873.1" y="431.0" font-family="'Segoe UI','Helvetica Neue',Arial,'Liberation Sans',sans-serif" font-size="9.6" font-weight="600" fill="#1B2733" text-anchor="start">Property lapse review</text><text x="1072.7" y="431.0" font-family="'Segoe UI','Helvetica Neue',Arial,'Liberation Sans',sans-serif" font-size="9.6" font-weight="600" fill="#C0392B" text-anchor="start">High</text><text x="1144.8" y="431.0" font-family="'Segoe UI','Helvetica Neue',Arial,'Liberation Sans',sans-serif" font-size="9.6" font-weight="600" fill="#C0392B" text-anchor="start">01:07</text><text x="1233.5" y="431.0" font-family="'Segoe UI','Helvetica Neue',Arial,'Liberation Sans',sans-serif" font-size="9.6" font-weight="600" fill="#1B2733" text-anchor="start">M. Haddad</text><line x1="780.4" y1="472.0" x2="1294.8" y2="472.0" stroke="#E3E8EE" stroke-width="0.8" stroke-linecap="round"/><text x="784.4" y="521.0" font-family="'Segoe UI','Helvetica Neue',Arial,'Liberation Sans',sans-serif" font-size="9.6" font-weight="600" fill="#1B2733" text-anchor="start">TKT-3120</text><text x="873.1" y="521.0" font-family="'Segoe UI','Helvetica Neue',Arial,'Liberation Sans',sans-serif" font-size="9.6" font-weight="600" fill="#1B2733" text-anchor="start">Motor renewal query</text><text x="1072.7" y="521.0" font-family="'Segoe UI','Helvetica Neue',Arial,'Liberation Sans',sans-serif" font-size="9.6" font-weight="600" fill="#E8A33D" text-anchor="start">Med</text><text x="1144.8" y="521.0" font-family="'Segoe UI','Helvetica Neue',Arial,'Liberation Sans',sans-serif" font-size="9.6" font-weight="600" fill="#1B2733" text-anchor="start">03:40</text><text x="1233.5" y="521.0" font-family="'Segoe UI','Helvetica Neue',Arial,'Liberation Sans',sans-serif" font-size="9.6" font-weight="600" fill="#1B2733" text-anchor="start">S. Kamal</text><line x1="780.4" y1="562.0" x2="1294.8" y2="562.0" stroke="#E3E8EE" stroke-width="0.8" stroke-linecap="round"/><text x="784.4" y="611.0" font-family="'Segoe UI','Helvetica Neue',Arial,'Liberation Sans',sans-serif" font-size="9.6" font-weight="600" fill="#1B2733" text-anchor="start">TKT-3126</text><text x="873.1" y="611.0" font-family="'Segoe UI','Helvetica Neue',Arial,'Liberation Sans',sans-serif" font-size="9.6" font-weight="600" fill="#1B2733" text-anchor="start">Medical card reissue</text><text x="1072.7" y="611.0" font-family="'Segoe UI','Helvetica Neue',Arial,'Liberation Sans',sans-serif" font-size="9.6" font-weight="600" fill="#0B875B" text-anchor="start">Low</text><text x="1144.8" y="611.0" font-family="'Segoe UI','Helvetica Neue',Arial,'Liberation Sans',sans-serif" font-size="9.6" font-weight="600" fill="#1B2733" text-anchor="start">2d</text><text x="1233.5" y="611.0" font-family="'Segoe UI','Helvetica Neue',Arial,'Liberation Sans',sans-serif" font-size="9.6" font-weight="600" fill="#1B2733" text-anchor="start">Unassigned</text><line x1="780.4" y1="652.0" x2="1294.8" y2="652.0" stroke="#E3E8EE" stroke-width="0.8" stroke-linecap="round"/><text x="784.4" y="701.0" font-family="'Segoe UI','Helvetica Neue',Arial,'Liberation Sans',sans-serif" font-size="9.6" font-weight="600" fill="#1B2733" text-anchor="start">INC-2051</text><text x="873.1" y="701.0" font-family="'Segoe UI','Helvetica Neue',Arial,'Liberation Sans',sans-serif" font-size="9.6" font-weight="600" fill="#1B2733" text-anchor="start">Complaint — billing</text><text x="1072.7" y="701.0" font-family="'Segoe UI','Helvetica Neue',Arial,'Liberation Sans',sans-serif" font-size="9.6" font-weight="600" fill="#C0392B" text-anchor="start">High</text><text x="1144.8" y="701.0" font-family="'Segoe UI','Helvetica Neue',Arial,'Liberation Sans',sans-serif" font-size="9.6" font-weight="600" fill="#C0392B" text-anchor="start">00:34</text><text x="1233.5" y="701.0" font-family="'Segoe UI','Helvetica Neue',Arial,'Liberation Sans',sans-serif" font-size="9.6" font-weight="600" fill="#1B2733" text-anchor="start">L. Fahad</text><line x1="780.4" y1="742.0" x2="1294.8" y2="742.0" stroke="#E3E8EE" stroke-width="0.8" stroke-linecap="round"/><text x="784.4" y="791.0" font-family="'Segoe UI','Helvetica Neue',Arial,'Liberation Sans',sans-serif" font-size="9.6" font-weight="600" fill="#1B2733" text-anchor="start">TKT-3130</text><text x="873.1" y="791.0" font-family="'Segoe UI','Helvetica Neue',Arial,'Liberation Sans',sans-serif" font-size="9.6" font-weight="600" fill="#1B2733" text-anchor="start">Address change</text><text x="1072.7" y="791.0" font-family="'Segoe UI','Helvetica Neue',Arial,'Liberation Sans',sans-serif" font-size="9.6" font-weight="600" fill="#0B875B" text-anchor="start">Low</text><text x="1144.8" y="791.0" font-family="'Segoe UI','Helvetica Neue',Arial,'Liberation Sans',sans-serif" font-size="9.6" font-weight="600" fill="#1B2733" text-anchor="start">2d</text><text x="1233.5" y="791.0" font-family="'Segoe UI','Helvetica Neue',Arial,'Liberation Sans',sans-serif" font-size="9.6" font-weight="600" fill="#1B2733" text-anchor="start">A. Nabil</text><line x1="780.4" y1="832.0" x2="1294.8" y2="832.0" stroke="#E3E8EE" stroke-width="0.8" stroke-linecap="round"/><text x="784.4" y="881.0" font-family="'Segoe UI','Helvetica Neue',Arial,'Liberation Sans',sans-serif" font-size="9.6" font-weight="600" fill="#1B2733" text-anchor="start">TKT-3134</text><text x="873.1" y="881.0" font-family="'Segoe UI','Helvetica Neue',Arial,'Liberation Sans',sans-serif" font-size="9.6" font-weight="600" fill="#1B2733" text-anchor="start">Portal access</text><text x="1072.7" y="881.0" font-family="'Segoe UI','Helvetica Neue',Arial,'Liberation Sans',sans-serif" font-size="9.6" font-weight="600" fill="#E8A33D" text-anchor="start">Med</text><text x="1144.8" y="881.0" font-family="'Segoe UI','Helvetica Neue',Arial,'Liberation Sans',sans-serif" font-size="9.6" font-weight="600" fill="#1B2733" text-anchor="start">05:10</text><text x="1233.5" y="881.0" font-family="'Segoe UI','Helvetica Neue',Arial,'Liberation Sans',sans-serif" font-size="9.6" font-weight="600" fill="#1B2733" text-anchor="start">S. Kamal</text><line x1="780.4" y1="922.0" x2="1294.8" y2="922.0" stroke="#E3E8EE" stroke-width="0.8" stroke-linecap="round"/><text x="784.4" y="971.0" font-family="'Segoe UI','Helvetica Neue',Arial,'Liberation Sans',sans-serif" font-size="9.6" font-weight="600" fill="#1B2733" text-anchor="start">INC-2055</text><text x="873.1" y="971.0" font-family="'Segoe UI','Helvetica Neue',Arial,'Liberation Sans',sans-serif" font-size="9.6" font-weight="600" fill="#1B2733" text-anchor="start">Claims status escalation</text><text x="1072.7" y="971.0" font-family="'Segoe UI','Helvetica Neue',Arial,'Liberation Sans',sans-serif" font-size="9.6" font-weight="600" fill="#C0392B" text-anchor="start">High</text><text x="1144.8" y="971.0" font-family="'Segoe UI','Helvetica Neue',Arial,'Liberation Sans',sans-serif" font-size="9.6" font-weight="600" fill="#C0392B" text-anchor="start">01:55</text><text x="1233.5" y="971.0" font-family="'Segoe UI','Helvetica Neue',Arial,'Liberation Sans',sans-serif" font-size="9.6" font-weight="600" fill="#1B2733" text-anchor="start">M. Haddad</text><line x1="780.4" y1="1012.0" x2="1294.8" y2="1012.0" stroke="#E3E8EE" stroke-width="0.8" stroke-linecap="round"/><rect x="1328.8" y="242.0" width="375.2" height="385.0" rx="9" ry="9" fill="#FFFFFF" stroke="#E3E8EE" stroke-width="1.2"/><g filter="url(#dsSoft)"><rect x="1328.8" y="242.0" width="375.2" height="385.0" rx="9" ry="9" fill="none"/></g><rect x="1340.8" y="254.0" width="22.0" height="22.0" rx="5" ry="5" fill="#F3F7FB" stroke="#E3E8EE" stroke-width="1"/><g transform="translate(1343.8799999999999,257.08) scale(0.6599999999999999)"><circle cx="5" cy="6" r="3" fill="#0D9DDA"/><circle cx="19" cy="6" r="3" fill="#0D9DDA"/><circle cx="12" cy="18" r="3" fill="#0D9DDA"/><path d="M5 9 V11 Q5 15 12 15 M19 9 V11 Q19 15 12 15" fill="none" stroke="#0D9DDA" stroke-width="1.8"/></g><text x="1370.8" y="269.0" font-family="'Segoe UI','Helvetica Neue',Arial,'Liberation Sans',sans-serif" font-size="12.5" font-weight="800" fill="#1B2733" text-anchor="start">Routing rules</text><line x1="1340.8" y1="282.0" x2="1692.0" y2="282.0" stroke="#E3E8EE" stroke-width="1" stroke-linecap="round"/><circle cx="1692.0" cy="254" r="15" fill="#C9A24B" stroke="#fff" stroke-width="2"/><circle cx="1692.0" cy="254" r="15" fill="none" stroke="#5E0E26" stroke-width="1" opacity="0.5"/><text x="1692.0" y="259.4" font-family="'Segoe UI','Helvetica Neue',Arial,'Liberation Sans',sans-serif" font-size="14.25" font-weight="900" fill="#3a2a06" text-anchor="middle">3</text><rect x="1340.8" y="292.0" width="351.2" height="26.0" rx="6" ry="6" fill="#F6F8FA" stroke="#E3E8EE" stroke-width="1"/><text x="1350.8" y="309.0" font-family="'Segoe UI','Helvetica Neue',Arial,'Liberation Sans',sans-serif" font-size="9.4" font-weight="700" fill="#1B2733" text-anchor="start">Lapse &gt; 30d</text><text x="1682.0" y="309.0" font-family="'Segoe UI','Helvetica Neue',Arial,'Liberation Sans',sans-serif" font-size="9.2" font-weight="700" fill="#0D9DDA" text-anchor="end">→ Complaints</text><rect x="1340.8" y="322.0" width="351.2" height="26.0" rx="6" ry="6" fill="#F6F8FA" stroke="#E3E8EE" stroke-width="1"/><text x="1350.8" y="339.0" font-family="'Segoe UI','Helvetica Neue',Arial,'Liberation Sans',sans-serif" font-size="9.4" font-weight="700" fill="#1B2733" text-anchor="start">Claims keyword</text><text x="1682.0" y="339.0" font-family="'Segoe UI','Helvetica Neue',Arial,'Liberation Sans',sans-serif" font-size="9.2" font-weight="700" fill="#0D9DDA" text-anchor="end">→ Claims</text><rect x="1340.8" y="352.0" width="351.2" height="26.0" rx="6" ry="6" fill="#F6F8FA" stroke="#E3E8EE" stroke-width="1"/><text x="1350.8" y="369.0" font-family="'Segoe UI','Helvetica Neue',Arial,'Liberation Sans',sans-serif" font-size="9.4" font-weight="700" fill="#1B2733" text-anchor="start">Underwriting cat.</text><text x="1682.0" y="369.0" font-family="'Segoe UI','Helvetica Neue',Arial,'Liberation Sans',sans-serif" font-size="9.2" font-weight="700" fill="#0D9DDA" text-anchor="end">→ Underwriting</text><rect x="1340.8" y="382.0" width="351.2" height="26.0" rx="6" ry="6" fill="#F6F8FA" stroke="#E3E8EE" stroke-width="1"/><text x="1350.8" y="399.0" font-family="'Segoe UI','Helvetica Neue',Arial,'Liberation Sans',sans-serif" font-size="9.4" font-weight="700" fill="#1B2733" text-anchor="start">Default</text><text x="1682.0" y="399.0" font-family="'Segoe UI','Helvetica Neue',Arial,'Liberation Sans',sans-serif" font-size="9.2" font-weight="700" fill="#0D9DDA" text-anchor="end">→ Customer Service</text><rect x="1328.8" y="641.0" width="375.2" height="385.0" rx="9" ry="9" fill="#FFFFFF" stroke="#E3E8EE" stroke-width="1.2"/><g filter="url(#dsSoft)"><rect x="1328.8" y="641.0" width="375.2" height="385.0" rx="9" ry="9" fill="none"/></g><rect x="1340.8" y="653.0" width="22.0" height="22.0" rx="5" ry="5" fill="#F3F7FB" stroke="#E3E8EE" stroke-width="1"/><g transform="translate(1343.8799999999999,656.08) scale(0.6599999999999999)"><circle cx="8" cy="8" r="3.2" fill="#0D9DDA"/><circle cx="16.5" cy="8.5" r="2.7" fill="#0D9DDA" opacity="0.75"/><path d="M2.5 20 Q2.5 12.5 8 12.5 Q13.5 12.5 13.5 20 Z" fill="#0D9DDA"/><path d="M13.5 20 Q13.5 13.5 16.5 13.5 Q21.5 13.5 21.5 20 Z" fill="#0D9DDA" opacity="0.75"/></g><text x="1370.8" y="668.0" font-family="'Segoe UI','Helvetica Neue',Arial,'Liberation Sans',sans-serif" font-size="12.5" font-weight="800" fill="#1B2733" text-anchor="start">Agent capacity</text><line x1="1340.8" y1="681.0" x2="1692.0" y2="681.0" stroke="#E3E8EE" stroke-width="1" stroke-linecap="round"/><circle cx="1692.0" cy="653.0" r="15" fill="#C9A24B" stroke="#fff" stroke-width="2"/><circle cx="1692.0" cy="653.0" r="15" fill="none" stroke="#5E0E26" stroke-width="1" opacity="0.5"/><text x="1692.0" y="658.4" font-family="'Segoe UI','Helvetica Neue',Arial,'Liberation Sans',sans-serif" font-size="14.25" font-weight="900" fill="#3a2a06" text-anchor="middle">4</text><text x="1344.8" y="701.0" font-family="'Segoe UI','Helvetica Neue',Arial,'Liberation Sans',sans-serif" font-size="9.6" font-weight="700" fill="#1B2733" text-anchor="start">S. Kamal</text><text x="1688.0" y="701.0" font-family="'Segoe UI','Helvetica Neue',Arial,'Liberation Sans',sans-serif" font-size="9" font-weight="600" fill="#5A6B7B" text-anchor="end">4/6</text><rect x="1344.8" y="707.0" width="343.2" height="8.0" rx="4" ry="4" fill="#E7ECF2"/><rect x="1344.8" y="707.0" width="228.8" height="8.0" rx="4" ry="4" fill="#0D9DDA"/><text x="1344.8" y="735.0" font-family="'Segoe UI','Helvetica Neue',Arial,'Liberation Sans',sans-serif" font-size="9.6" font-weight="700" fill="#1B2733" text-anchor="start">M. Haddad</text><text x="1688.0" y="735.0" font-family="'Segoe UI','Helvetica Neue',Arial,'Liberation Sans',sans-serif" font-size="9" font-weight="600" fill="#5A6B7B" text-anchor="end">6/6</text><rect x="1344.8" y="741.0" width="343.2" height="8.0" rx="4" ry="4" fill="#E7ECF2"/><rect x="1344.8" y="741.0" width="343.2" height="8.0" rx="4" ry="4" fill="#C0392B"/><text x="1344.8" y="769.0" font-family="'Segoe UI','Helvetica Neue',Arial,'Liberation Sans',sans-serif" font-size="9.6" font-weight="700" fill="#1B2733" text-anchor="start">L. Fahad</text><text x="1688.0" y="769.0" font-family="'Segoe UI','Helvetica Neue',Arial,'Liberation Sans',sans-serif" font-size="9" font-weight="600" fill="#5A6B7B" text-anchor="end">3/6</text><rect x="1344.8" y="775.0" width="343.2" height="8.0" rx="4" ry="4" fill="#E7ECF2"/><rect x="1344.8" y="775.0" width="171.6" height="8.0" rx="4" ry="4" fill="#0D9DDA"/><text x="1344.8" y="803.0" font-family="'Segoe UI','Helvetica Neue',Arial,'Liberation Sans',sans-serif" font-size="9.6" font-weight="700" fill="#1B2733" text-anchor="start">A. Nabil</text><text x="1688.0" y="803.0" font-family="'Segoe UI','Helvetica Neue',Arial,'Liberation Sans',sans-serif" font-size="9" font-weight="600" fill="#5A6B7B" text-anchor="end">2/6</text><rect x="1344.8" y="809.0" width="343.2" height="8.0" rx="4" ry="4" fill="#E7ECF2"/><rect x="1344.8" y="809.0" width="114.4" height="8.0" rx="4" ry="4" fill="#0D9DDA"/><rect x="0" y="1054" width="1760" height="46" fill="#16283A"/><rect x="0" y="1054" width="1760" height="2.5" fill="#C9A24B"/><text x="40.0" y="1082.0" font-family="'Segoe UI','Helvetica Neue',Arial,'Liberation Sans',sans-serif" font-size="12" font-weight="600" fill="#CBD6E1" text-anchor="start">QICIRCO Enterprise CRM Implementation  ·  Technical Proposal</text><text x="880.0" y="1082.0" font-family="'Segoe UI','Helvetica Neue',Arial,'Liberation Sans',sans-serif" font-size="11.5" font-weight="700" fill="#C9A24B" text-anchor="middle">Solution option: Salesforce</text><text x="1720.0" y="1082.0" font-family="'Segoe UI','Helvetica Neue',Arial,'Liberation Sans',sans-serif" font-size="11.5" font-weight="500" fill="#CBD6E1" text-anchor="end">Trion Technology  ×  Volge   ·   FR-4 · Routing &amp; Queue Management</text></svg>